<?xml version="1.0" standalone="no"?>
<!DOCTYPE svg PUBLIC "-//W3C//DTD SVG 20010904//EN"
 "http://www.w3.org/TR/2001/REC-SVG-20010904/DTD/svg10.dtd">
<svg version="1.0" xmlns="http://www.w3.org/2000/svg"
 width="1080.000000pt" height="1080.000000pt" viewBox="0 0 1080.000000 1080.000000"
 preserveAspectRatio="xMidYMid meet">
<metadata>
Created by potrace 1.14, written by Peter Selinger 2001-2017
</metadata>
<g transform="translate(0.000000,1080.000000) scale(0.100000,-0.100000)"
fill="#000000" stroke="none">
<path d="M2688 10479 c-10 -6 -8 -14 9 -31 22 -21 23 -21 43 -3 11 10 20 21
20 25 0 11 -58 18 -72 9z"/>
<path d="M3200 10398 c-19 -5 -48 -8 -65 -6 -28 3 -30 1 -30 -27 0 -16 4 -36
9 -44 6 -10 6 -12 -3 -7 -9 6 -11 -3 -9 -36 2 -35 6 -42 21 -40 20 3 97 76 97
92 0 6 11 16 25 22 26 12 34 38 13 38 -9 0 -8 4 2 10 12 8 11 10 -5 9 -11 0
-36 -5 -55 -11z"/>
<path d="M2750 10291 c0 -20 -8 -35 -22 -45 -12 -9 -17 -16 -11 -16 7 0 23 12
37 27 19 20 23 31 15 45 -14 26 -19 22 -19 -11z"/>
<path d="M1425 10284 c-16 -9 -41 -23 -55 -30 -14 -8 -20 -14 -14 -14 6 0 17
-19 23 -42 12 -39 12 -43 -8 -56 -17 -11 -21 -25 -21 -63 0 -27 5 -51 13 -56
15 -10 29 -32 62 -99 22 -44 23 -54 12 -77 -14 -32 -17 -33 -45 -7 -12 11 -26
20 -32 20 -6 0 -10 -64 -10 -188 l0 -189 22 1 c15 1 27 -7 33 -21 5 -13 13
-23 17 -23 5 0 8 -9 8 -19 0 -21 -19 -31 -56 -31 -24 0 -24 -1 -24 -90 0 -72
3 -90 14 -90 8 0 18 5 21 10 10 17 25 11 36 -14 10 -22 13 -23 40 -9 37 18 65
10 111 -34 35 -34 36 -37 21 -59 -8 -13 -38 -38 -66 -56 -27 -18 -62 -41 -76
-51 -17 -11 -39 -17 -63 -15 l-38 4 0 -141 1 -140 38 -17 c46 -22 51 -22 65
-4 6 8 26 17 45 20 22 3 43 16 60 37 23 27 34 32 66 31 22 -1 49 5 61 13 20
13 23 12 28 -2 4 -9 3 -19 -2 -22 -5 -3 -14 -28 -22 -54 -9 -34 -23 -57 -47
-75 -19 -16 -33 -36 -33 -49 0 -12 -6 -24 -12 -26 -7 -3 11 -6 40 -6 31 -1 66
-8 82 -17 34 -21 60 -71 53 -105 -3 -16 1 -30 11 -38 21 -18 20 -46 -3 -79
-11 -15 -22 -45 -26 -66 -9 -54 -30 -82 -73 -99 -31 -12 -40 -23 -55 -65 -27
-74 -84 -104 -144 -75 -18 8 -33 19 -33 23 0 16 -34 20 -66 8 -34 -12 -34 -13
-34 -75 0 -59 1 -63 23 -63 31 0 55 -19 63 -52 5 -23 0 -33 -26 -58 -18 -16
-38 -30 -46 -30 -22 0 -20 -235 2 -244 25 -10 44 -7 44 6 0 6 8 20 17 30 13
14 14 21 5 30 -15 15 -16 31 0 22 7 -5 9 -2 6 7 -3 8 2 24 12 36 15 19 26 22
75 19 46 -2 62 -7 77 -25 10 -13 18 -30 18 -39 0 -11 3 -13 10 -6 6 6 2 25
-12 53 -26 53 -21 64 53 104 39 22 67 30 102 30 48 -1 54 6 41 41 -3 9 -15 16
-25 16 -26 0 -53 44 -41 67 6 10 10 22 10 28 -1 15 66 49 70 36 2 -6 8 -11 12
-11 5 0 -6 28 -25 62 l-33 62 39 18 c30 13 50 15 83 9 24 -4 58 -6 75 -3 17 2
45 -1 61 -8 26 -11 30 -18 30 -52 0 -33 -5 -42 -29 -56 l-29 -16 25 -43 c28
-48 26 -77 -8 -124 -24 -34 -24 -49 -1 -49 27 0 52 -32 52 -65 0 -15 15 -51
34 -80 35 -51 35 -52 20 -95 -8 -24 -13 -48 -11 -54 3 -6 26 -22 53 -36 79
-41 104 -68 104 -111 0 -61 -52 -86 -114 -54 -41 21 -52 19 -78 -17 -27 -39
-33 -68 -14 -68 20 0 29 17 14 23 -8 3 -6 6 4 6 19 1 35 -40 23 -58 -3 -6 -21
-11 -38 -11 -39 -1 -67 -20 -67 -48 0 -27 -21 -74 -40 -89 -21 -17 -80 -6
-106 21 -12 11 -24 40 -28 62 -6 39 -4 42 21 49 29 7 53 23 53 34 0 4 -13 15
-30 24 -17 10 -30 27 -30 38 0 30 -24 23 -43 -13 -13 -25 -16 -45 -11 -81 6
-43 4 -51 -21 -77 -31 -32 -92 -50 -104 -31 -5 7 -19 5 -46 -9 -48 -24 -53
-24 -95 -4 -29 15 -39 15 -84 4 -28 -8 -61 -13 -73 -12 -13 1 -23 -2 -23 -7 0
-9 76 -31 108 -31 26 0 144 -38 156 -50 6 -6 18 -10 29 -10 10 0 28 -5 40 -12
12 -6 47 -12 78 -13 62 -1 71 -7 107 -72 27 -52 27 -57 0 -83 -26 -24 -43 -25
-82 -5 -15 8 -44 15 -62 15 -33 0 -66 22 -76 51 -4 11 -12 10 -41 -6 -20 -11
-37 -23 -37 -27 0 -10 -62 -43 -76 -40 -6 1 -27 -4 -46 -13 -27 -11 -40 -25
-54 -60 -11 -25 -25 -45 -31 -45 -7 0 -13 -7 -13 -15 0 -16 26 -10 49 13 7 7
20 11 28 8 8 -3 21 -6 29 -6 11 0 13 -6 9 -20 -4 -11 -2 -20 4 -20 17 0 13
-26 -5 -41 -15 -12 -14 -14 7 -20 13 -3 23 -11 22 -17 -2 -7 2 -12 7 -12 6 0
10 4 10 9 0 5 8 12 18 15 9 4 37 24 62 46 55 49 97 59 140 34 64 -39 81 -107
38 -154 -18 -19 -19 -25 -8 -46 8 -13 20 -24 29 -24 30 0 116 30 143 50 15 11
40 20 56 20 16 0 35 6 41 14 7 8 37 18 67 22 42 5 60 3 80 -10 14 -10 37 -18
52 -19 22 -2 28 -8 30 -32 2 -17 8 -35 13 -41 12 -15 42 -139 42 -179 1 -16
-2 -46 -7 -65 l-7 -35 57 4 c32 1 64 9 71 17 8 8 33 14 56 14 67 0 91 29 74
87 -8 25 -8 40 1 54 18 28 15 43 -13 67 -33 29 -40 63 -21 101 18 35 59 50 88
32 49 -30 123 -51 182 -51 29 0 36 5 45 30 11 33 23 36 64 18 32 -16 36 -55 8
-80 -19 -16 -43 -84 -56 -161 -5 -22 -2 -57 6 -84 10 -36 10 -48 1 -51 -7 -2
-12 -8 -12 -14 0 -14 38 1 97 38 29 18 75 45 103 59 40 20 59 39 90 88 63 101
91 139 96 134 6 -5 -24 -69 -36 -77 -12 -9 -90 -137 -90 -149 0 -6 -4 -11 -10
-11 -5 0 -10 -6 -10 -14 0 -8 -16 -31 -35 -52 -20 -21 -35 -31 -35 -22 0 8 5
19 12 26 18 18 2 26 -34 16 -23 -7 -33 -16 -33 -29 0 -37 -12 -43 -80 -37
l-65 5 -79 -79 c-43 -43 -77 -83 -75 -89 6 -14 -31 -45 -83 -70 -22 -11 -39
-23 -37 -26 5 -9 -44 -26 -74 -27 -13 -1 -40 -13 -59 -28 -30 -23 -33 -28 -19
-36 25 -14 19 -34 -16 -57 -18 -11 -28 -21 -21 -21 13 0 83 -60 83 -72 0 -4
-10 -8 -22 -8 -19 0 -20 -2 -8 -10 27 -18 -10 -30 -72 -23 -58 6 -58 6 -58
-21 0 -23 -4 -26 -34 -26 -35 0 -66 -23 -46 -35 19 -12 10 -22 -21 -22 -20 0
-38 -7 -48 -20 -19 -23 -53 -34 -72 -22 -7 4 -27 2 -43 -5 -17 -7 -36 -11 -41
-9 -6 2 -17 -11 -25 -29 -7 -18 -15 -36 -18 -40 -2 -5 8 -12 23 -18 35 -13 58
-37 45 -45 -5 -3 -15 -3 -20 0 -6 4 -35 8 -66 11 -30 2 -62 8 -71 13 -18 9
-53 3 -53 -10 0 -4 -33 -41 -72 -81 -40 -40 -83 -94 -95 -119 -28 -56 -60
-182 -70 -274 -7 -59 -11 -68 -29 -71 -12 -2 -33 5 -46 15 -22 18 -79 117 -85
151 -4 16 -3 96 0 165 2 37 -16 75 -35 75 -5 0 -8 -175 -8 -389 l0 -390 45 -6
c39 -6 48 -4 77 20 18 15 37 37 43 49 8 18 10 16 13 -19 4 -40 -10 -132 -29
-192 -10 -31 -11 -31 -30 -15 -11 9 -23 16 -27 15 -4 0 -15 3 -24 8 -10 5 -27
5 -42 -1 -24 -9 -26 -14 -26 -69 l0 -59 34 -6 c18 -4 41 -3 51 0 15 6 16 1 10
-67 -4 -41 -8 -139 -10 -219 -2 -93 -9 -166 -19 -203 -9 -32 -16 -66 -16 -76
0 -10 -9 -26 -20 -36 -11 -10 -17 -22 -14 -26 3 -5 0 -9 -5 -9 -15 0 -15 -636
-1 -645 13 -8 13 -62 0 -70 -6 -4 -10 -273 -10 -770 l0 -763 23 5 c12 3 27 9
32 14 10 8 49 22 170 65 39 13 79 29 90 34 25 13 143 56 210 77 28 8 58 20 69
25 54 28 172 58 229 58 44 0 58 -3 47 -10 -24 -15 5 -12 36 5 16 8 47 15 69
15 l41 0 32 -89 c18 -48 32 -96 32 -105 0 -9 5 -16 10 -16 6 0 10 -6 10 -13 0
-8 8 -29 18 -48 26 -51 18 -147 -27 -333 -71 -292 -82 -351 -111 -581 -9 -72
-23 -152 -36 -212 l-4 -23 824 0 c560 0 827 3 831 10 4 6 9 43 11 83 3 40 11
104 19 142 8 39 17 102 20 140 3 39 10 99 15 135 5 36 14 108 20 160 8 63 16
97 26 103 16 9 20 112 4 122 -13 8 -12 234 0 295 20 93 30 317 30 683 1 207 5
377 9 377 4 0 85 -32 181 -71 189 -77 317 -119 362 -119 15 0 28 -5 28 -11 0
-21 -187 7 -307 47 -83 28 -125 30 -147 8 -20 -19 -20 -28 -1 -21 8 4 23 -4
34 -19 19 -24 19 -45 -1 -71 -26 -33 198 -121 386 -152 172 -29 434 -46 489
-32 25 6 49 11 54 11 10 0 18 -341 18 -740 -1 -297 -11 -500 -40 -785 -8 -77
-17 -175 -20 -217 l-6 -78 181 0 180 0 -16 25 c-15 23 -13 30 9 26 4 0 7 5 7
13 0 8 5 27 10 42 8 21 14 24 22 16 9 -9 15 -5 24 18 20 46 29 36 26 -28 -3
-53 -2 -59 22 -71 17 -9 42 -12 74 -8 46 5 49 4 45 -14 -5 -18 2 -19 200 -19
l205 0 -6 45 c-3 30 -1 45 7 45 6 0 11 -18 11 -45 l0 -45 155 0 155 0 3 413
c4 674 5 649 -55 867 -11 41 -26 102 -34 135 -7 33 -18 74 -24 90 -6 16 -20
68 -31 115 -22 96 -49 177 -90 266 l-27 62 46 12 c108 29 374 154 485 227 70
47 99 85 135 178 10 28 23 59 27 70 5 11 21 56 36 100 15 44 33 83 41 87 11 6
194 41 488 93 47 8 135 24 195 35 61 11 236 40 390 65 154 25 332 54 395 66
63 11 183 31 265 44 83 13 284 47 449 74 164 28 303 51 307 51 5 0 9 352 9
791 0 666 -2 790 -14 786 -73 -28 -179 -49 -307 -62 -85 -8 -188 -22 -229 -30
-105 -19 -194 -32 -350 -50 -182 -22 -269 -40 -435 -90 -190 -58 -251 -75
-267 -74 -7 0 -2 4 12 9 14 4 108 35 210 68 183 60 342 93 510 107 41 4 152
22 245 40 94 19 211 39 260 45 50 6 94 15 99 21 13 12 29 12 21 -1 -3 -5 -1
-10 4 -10 6 0 11 5 11 10 0 6 9 10 21 10 11 0 29 4 39 10 10 5 40 12 67 15 26
3 60 10 76 16 l27 11 0 345 0 345 -37 -6 c-179 -32 -930 -209 -1128 -266 -55
-16 -120 -32 -145 -35 -43 -6 -121 -23 -445 -96 -77 -17 -286 -67 -465 -110
-179 -44 -383 -94 -455 -111 -71 -17 -131 -32 -133 -33 -2 -2 24 -56 58 -120
l62 -117 -32 6 c-33 5 -50 20 -50 43 0 7 -6 16 -13 20 -21 13 -77 157 -81 208
-4 37 -35 105 -78 167 -18 26 -51 77 -73 113 -65 107 -115 175 -129 175 -30 0
-76 -13 -76 -22 0 -5 16 -33 34 -63 48 -75 79 -136 71 -143 -3 -3 -8 4 -12 16
-11 44 -23 21 -17 -34 6 -49 4 -59 -12 -72 -16 -13 -16 -14 -1 -9 11 4 17 1
17 -7 0 -8 -4 -16 -10 -18 -5 -1 -7 -13 -4 -25 4 -13 10 -20 15 -17 12 7 10
-3 -6 -46 -11 -28 -14 -31 -14 -12 -1 12 -10 41 -21 62 -11 22 -18 40 -16 40
3 0 -3 23 -13 50 -18 51 -55 100 -75 100 -6 0 4 -14 22 -30 27 -25 31 -33 22
-50 -12 -23 -40 -26 -59 -8 -10 10 -10 8 0 -10 9 -14 20 -20 29 -16 39 16 50
16 50 -1 0 -13 -6 -16 -24 -13 -20 4 -26 0 -31 -19 -3 -14 0 -31 6 -40 7 -8
14 -29 16 -46 l3 -32 -26 38 c-16 24 -24 47 -21 59 3 11 3 17 0 14 -11 -10
-30 38 -27 67 3 23 0 28 -12 23 -12 -4 -14 -1 -9 14 5 14 -6 32 -38 67 -43 46
-77 101 -77 122 0 14 -110 167 -150 209 -17 18 -36 30 -41 27 -5 -4 -9 -2 -9
4 0 5 -3 16 -6 25 -4 11 -1 16 11 16 14 0 13 5 -6 33 -69 98 -199 209 -259
222 -19 4 -50 17 -70 29 -62 39 -139 76 -157 76 -17 1 -16 2 1 15 11 8 18 16
15 18 -10 7 -117 47 -142 53 -16 3 -26 12 -24 18 2 6 -14 27 -35 47 -21 20
-38 34 -38 31 0 -3 -10 10 -22 28 -32 46 -261 201 -275 186 -4 -4 59 -111 186
-316 103 -168 113 -182 122 -169 4 7 5 19 1 28 -3 9 -2 13 2 10 4 -4 11 -21
16 -39 7 -26 7 -31 -5 -26 -12 4 -11 0 2 -22 17 -26 17 -26 -1 -12 -10 8 -32
14 -49 13 -28 -1 -29 0 -8 6 23 6 22 8 -30 65 -42 46 -49 58 -32 54 20 -5 21
-3 13 12 -15 27 -67 62 -75 50 -10 -16 -22 -12 -30 13 -4 12 -8 24 -10 27 -1
3 -5 13 -9 23 -5 9 -6 31 -4 47 3 17 1 30 -2 30 -4 0 -10 12 -13 28 -3 15 -25
48 -49 73 -121 130 -216 280 -157 249 10 -6 32 -30 48 -54 26 -38 49 -52 194
-123 217 -106 231 -111 255 -90 10 9 36 19 58 22 35 4 42 2 53 -18 7 -13 10
-35 7 -50 -2 -15 -1 -27 4 -27 5 0 16 -3 24 -6 12 -5 15 -2 10 11 -6 15 -4 16
15 5 27 -14 127 -11 161 5 14 7 30 10 37 8 19 -7 34 34 28 71 -4 20 -2 36 4
40 18 11 13 26 -13 37 -13 6 -27 20 -29 30 -3 11 -1 17 3 14 15 -9 20 10 25
100 4 63 1 99 -10 131 -22 64 -19 152 5 192 25 40 25 56 1 108 -31 67 -1 109
98 139 20 6 22 12 17 38 -8 37 -23 57 -45 57 -35 0 -91 80 -91 130 0 10 12 32
26 50 l26 31 -42 39 c-24 22 -47 40 -51 40 -5 0 -11 -15 -15 -34 -12 -68 -79
-96 -161 -69 l-32 11 1 -47 c1 -30 -7 -64 -20 -93 -12 -24 -22 -47 -22 -51 0
-4 -13 -26 -30 -49 -16 -22 -30 -45 -30 -51 0 -5 16 -27 35 -48 19 -22 35 -47
35 -57 -1 -41 -37 -58 -85 -37 -27 11 -41 27 -61 70 -25 52 -26 59 -14 98 12
39 11 42 -14 62 -70 55 -86 65 -105 65 -12 0 -21 5 -21 12 0 7 -14 -7 -31 -30
-20 -28 -38 -42 -53 -42 -21 0 -24 -6 -30 -57 -9 -75 -37 -194 -49 -211 -6 -7
-20 -33 -32 -57 l-21 -45 0 49 c0 28 4 47 9 44 5 -3 6 4 2 16 -5 17 -3 20 12
15 11 -4 14 -3 7 3 -6 4 -14 20 -18 36 -5 21 -3 27 9 27 9 0 13 5 10 10 -4 6
-9 8 -13 6 -4 -2 -7 10 -7 27 0 18 -4 45 -8 60 -6 21 -5 27 4 21 9 -5 10 -2 6
10 -4 10 -7 20 -7 22 0 2 -6 4 -13 4 -14 0 -37 40 -37 64 0 7 -11 23 -25 36
-14 13 -23 30 -21 37 3 7 1 15 -4 18 -6 4 -10 13 -10 21 0 8 5 12 10 9 6 -3
10 -2 10 3 0 5 -9 12 -20 15 -11 3 -20 13 -20 22 0 12 7 15 30 11 21 -3 30 0
30 9 0 7 -4 15 -9 17 -5 2 -6 24 -1 51 5 38 4 50 -9 58 -12 7 -13 12 -3 15 17
8 15 43 -3 50 -19 8 -20 34 -1 34 7 0 32 -6 54 -14 39 -14 41 -14 49 7 4 12 6
67 4 122 -2 91 -1 102 18 119 12 11 22 17 24 15 53 -77 61 -93 50 -96 -7 -3
-13 -9 -13 -14 0 -4 7 -6 15 -2 16 6 44 -22 45 -44 0 -7 -12 -24 -26 -38 -22
-22 -26 -33 -21 -63 2 -21 16 -55 31 -76 28 -42 35 -33 11 13 -17 34 -26 99
-14 107 5 3 9 -8 9 -24 0 -16 7 -46 16 -67 8 -21 13 -48 10 -61 -3 -12 -2 -25
3 -28 4 -3 16 -32 25 -65 9 -33 24 -62 32 -65 32 -12 98 15 135 56 49 52 93
60 136 24 34 -28 41 -30 62 -17 11 7 7 18 -22 52 -41 47 -49 98 -22 133 14 18
12 22 -17 46 -28 23 -32 34 -36 89 -4 54 -8 65 -33 84 -16 11 -29 30 -29 42 0
22 29 60 51 67 8 3 10 14 5 31 -5 20 -18 32 -45 43 -24 9 -41 24 -45 37 -5 19
-8 20 -16 7 -9 -13 -11 -13 -20 0 -17 25 -11 39 18 46 15 3 34 8 44 10 9 3 19
0 23 -6 3 -6 10 -8 15 -5 5 3 26 -1 47 -10 57 -24 105 -12 137 34 14 20 26 43
26 49 0 15 -28 59 -52 84 -10 10 -18 25 -18 34 0 8 -4 12 -10 9 -5 -3 -10 1
-10 10 0 21 91 112 125 125 14 5 37 10 51 10 27 0 78 44 88 75 3 11 18 33 32
49 23 24 32 28 67 23 26 -4 49 -16 69 -36 17 -17 34 -31 39 -31 5 0 14 -11 19
-25 10 -28 -5 -65 -26 -65 -23 0 -41 -43 -30 -72 12 -34 36 -36 75 -7 23 17
36 19 76 13 56 -8 85 -33 85 -72 0 -17 10 -38 24 -52 33 -30 43 -77 23 -98
-16 -15 -34 -19 -92 -21 l-30 -1 45 -40 c25 -22 52 -40 62 -40 9 0 21 -13 26
-30 7 -17 23 -35 39 -42 15 -6 36 -18 45 -26 10 -8 25 -11 37 -7 17 5 21 15
21 45 0 29 7 46 25 65 26 25 61 33 67 15 2 -6 16 -6 41 1 41 11 50 38 22 65
-25 25 -28 61 -10 100 l16 35 -34 38 c-29 33 -35 48 -42 105 -6 64 -5 68 19
91 14 13 26 29 26 35 0 15 31 12 51 -6 22 -20 60 -13 89 16 15 15 18 29 15 60
-2 23 -9 47 -15 55 -19 23 -92 34 -204 30 -106 -3 -110 -2 -133 23 -16 18 -23
37 -23 67 0 48 18 69 66 79 38 8 61 32 66 66 2 14 13 29 26 35 12 5 22 13 22
17 0 5 11 8 25 8 27 0 34 15 10 24 -8 3 -15 10 -15 16 0 6 -7 18 -15 27 -14
13 -18 13 -42 -4 -14 -10 -35 -23 -47 -30 -11 -7 -26 -20 -33 -29 -12 -17 -16
-17 -68 0 -30 9 -55 22 -55 28 0 5 -7 8 -15 5 -8 -4 -37 9 -66 28 -36 25 -62
35 -90 35 -21 0 -57 10 -81 24 -24 13 -55 26 -70 30 -33 8 -72 59 -63 85 3 10
15 21 27 24 18 5 19 8 8 21 -7 9 -18 16 -24 16 -15 1 -49 30 -70 62 -15 23
-16 32 -5 66 14 49 6 89 -21 97 -31 10 -50 34 -50 64 0 39 28 61 77 61 24 0
43 5 45 12 7 21 -56 47 -108 45 -39 -2 -54 2 -75 21 -14 12 -34 29 -45 36 -16
12 -16 16 -5 30 8 9 12 17 10 19 -2 1 -13 7 -24 13 -11 6 -22 20 -23 30 -5 27
-42 64 -64 64 -10 0 -18 4 -18 9 0 17 -41 24 -53 9 -7 -8 -31 -20 -54 -27 -49
-13 -63 -30 -38 -43 9 -6 31 -25 49 -44 23 -25 37 -32 54 -28 33 9 42 -24 13
-48 -35 -28 -91 -23 -158 14 -32 17 -75 41 -97 52 -26 14 -33 22 -22 24 9 2
16 12 16 22 0 14 10 21 34 26 19 3 39 3 44 0 5 -3 15 1 22 9 10 12 8 23 -15
57 -15 23 -31 53 -35 67 -9 35 -40 41 -40 8 0 -32 -36 -77 -61 -77 -11 0 -33
15 -50 33 l-30 32 -102 0 c-112 0 -139 -3 -132 -15 13 -21 -117 -32 -137 -12
-16 16 -58 15 -58 -1 0 -24 -37 -49 -59 -42 -12 3 -21 10 -21 15 0 10 -46 25
-105 35 -45 8 -55 18 -55 57 0 18 6 29 19 33 11 3 24 12 30 19 9 10 -4 20 -56
47 -63 32 -73 34 -178 36 -60 1 -120 2 -132 3 -27 3 -35 31 -17 66 8 15 12 35
9 46 -4 12 -1 18 9 18 13 0 14 3 4 19 -17 27 -55 47 -126 65 -81 20 -89 20
-97 -4 -3 -11 -12 -20 -20 -20 -13 0 -25 -21 -25 -47 0 -14 24 -44 35 -43 54
3 93 -13 99 -42 15 -63 20 -78 27 -78 5 0 8 -3 8 -7 -4 -22 3 -33 19 -34 10 0
5 -5 -12 -11 -22 -8 -47 -8 -92 2 -69 13 -144 6 -144 -15 0 -14 -22 -25 -52
-25 -10 0 -27 -7 -36 -16 -20 -21 -85 -13 -121 14 -30 22 -44 74 -31 120 5 19
6 56 3 84 -4 34 -2 52 6 58 7 4 13 22 14 41 2 28 -2 35 -25 43 -24 8 -31 6
-52 -17 -23 -25 -30 -27 -100 -24 -62 2 -79 -1 -103 -19 -15 -12 -29 -31 -29
-42 -2 -28 -20 -49 -58 -69 -36 -18 -150 -12 -196 12 -22 12 -34 12 -61 2 -19
-7 -36 -15 -39 -18 -37 -41 -143 -54 -176 -22 -19 19 -72 22 -106 6 -81 -38
-123 -41 -112 -6 5 15 4 16 -6 3 -9 -11 -13 -12 -17 -2 -2 6 -12 12 -20 12
-12 0 -14 -9 -10 -42 3 -24 3 -35 0 -25 -6 21 -33 23 -33 2 0 -8 5 -15 10 -15
6 0 10 -22 10 -48 0 -45 -2 -49 -35 -65 -20 -9 -40 -17 -46 -17 -6 0 -24 -10
-41 -21 -27 -20 -35 -21 -78 -11 -26 6 -56 8 -68 5 -11 -3 -31 2 -44 11 -12 9
-29 16 -38 16 -36 0 -91 22 -100 41 -9 16 -5 25 24 53 19 19 45 37 58 41 12 5
35 21 50 37 29 31 36 44 18 33 -6 -4 -10 6 -10 22 0 30 29 63 55 63 24 0 6 26
-20 28 -16 1 -28 -6 -36 -20 -22 -41 -37 -50 -70 -43 -21 5 -34 3 -39 -5 -11
-17 -41 -4 -47 20 -6 23 -33 27 -33 5 0 -20 -17 -19 -28 1 -6 11 -18 15 -33
12 -23 -4 -24 -2 -20 39 2 32 7 43 20 44 10 0 8 4 -8 10 -15 6 -28 6 -36 -1
-8 -7 -15 -3 -23 15 -6 14 -16 25 -22 25 -5 0 -10 13 -10 28 0 27 -26 62 -46
62 -5 0 -22 -7 -39 -16z m1285 -274 c0 -5 -7 -10 -16 -10 -8 0 -12 5 -9 10 3
6 10 10 16 10 5 0 9 -4 9 -10z m533 -315 c20 -15 20 -51 -1 -49 -6 1 -28 2
-47 3 -30 1 -35 5 -35 24 0 13 3 27 7 30 11 12 57 7 76 -8z m-976 -55 c40 -24
54 -77 29 -115 -14 -22 -24 -25 -72 -25 -45 0 -59 4 -79 25 -29 28 -31 51 -9
84 15 21 65 50 89 51 6 0 24 -9 42 -20z m1579 -14 c-4 -15 -1 -26 7 -29 6 -2
8 -8 4 -13 -4 -5 -12 -2 -17 6 -13 21 -12 60 1 60 7 0 9 -9 5 -24z m194 -11
c0 -14 17 -20 47 -16 15 2 53 -47 53 -69 0 -27 -26 -43 -57 -36 -16 4 -40 7
-54 6 -33 0 -45 14 -54 67 -6 39 -5 44 17 52 34 14 48 13 48 -4z m-1006 -61
c5 -20 2 -32 -13 -48 -12 -12 -21 -28 -21 -35 0 -11 -16 -13 -70 -9 -39 3 -73
8 -76 11 -8 8 77 92 111 110 36 18 60 9 69 -29z m1246 36 c0 -5 -9 -10 -19
-10 -11 0 -23 5 -26 10 -4 6 5 10 19 10 14 0 26 -4 26 -10z m168 -70 c-2 -19
-10 -26 -30 -28 -18 -2 -28 1 -28 10 0 7 -10 18 -22 23 -33 14 -33 37 -1 56
27 15 29 15 56 -10 19 -17 27 -34 25 -51z m-163 40 c3 -5 -3 -10 -15 -10 -12
0 -18 5 -15 10 3 6 10 10 15 10 5 0 12 -4 15 -10z m1065 -50 c0 -5 -4 -10 -9
-10 -6 0 -13 5 -16 10 -3 6 1 10 9 10 9 0 16 -4 16 -10z m-2098 -84 c3 -6 -1
-15 -10 -22 -20 -15 -44 0 -35 22 3 8 0 14 -6 14 -6 0 -11 10 -11 22 0 21 0
21 27 -3 15 -13 31 -28 35 -33z m-905 18 c-3 -3 -12 -4 -19 -1 -8 3 -5 6 6 6
11 1 17 -2 13 -5z m148 -68 c40 -17 53 -50 38 -99 -8 -29 -13 -32 -44 -29 -35
2 -79 40 -79 68 0 13 39 74 47 74 2 0 19 -6 38 -14z m192 -2 c3 -8 11 -13 18
-10 7 2 18 -7 24 -21 13 -29 0 -53 -29 -53 -20 0 -46 27 -36 37 3 3 -2 15 -11
25 -15 17 -15 20 -3 28 21 14 30 12 37 -6z m526 -17 c21 -8 22 -26 2 -34 -20
-7 -25 -2 -31 33 -2 16 -1 24 3 18 5 -6 16 -13 26 -17z m-383 -52 c0 -8 -9
-15 -20 -15 -11 0 -20 -4 -20 -10 0 -5 -4 -10 -9 -10 -4 0 -6 11 -3 25 3 18
11 25 28 25 15 0 24 -6 24 -15z m-553 -17 c4 -7 13 -31 18 -52 9 -34 16 -41
53 -54 67 -22 79 -83 27 -132 -28 -27 -78 -22 -113 10 -12 11 -26 20 -31 20
-23 0 -40 34 -46 95 -7 62 -6 66 21 95 30 32 57 38 71 18z m785 6 c11 -10 -8
-59 -23 -59 -8 0 -20 -4 -26 -8 -10 -6 -44 4 -61 18 -2 2 4 15 13 29 14 20 26
26 54 26 21 0 40 -3 43 -6z m-496 -99 c8 -19 -22 -49 -41 -41 -19 7 -19 21 1
40 19 20 33 20 40 1z m2831 -24 c23 -2 53 -45 53 -75 -1 -44 -21 -66 -62 -66
-26 0 -39 7 -56 30 -26 34 -27 51 -8 89 11 20 21 27 38 25 13 -1 28 -3 35 -3z
m-3558 -46 c35 -18 44 -49 26 -85 -25 -48 -73 -54 -111 -13 -20 21 -24 34 -20
57 11 52 53 69 105 41z m295 -70 c47 -47 49 -59 12 -94 -28 -28 -37 -31 -54
-22 -14 8 -19 17 -15 33 3 13 2 20 -2 15 -10 -9 -45 21 -45 40 0 12 55 53 72
53 4 0 18 -11 32 -25z m2626 -31 c11 -12 11 -18 -2 -30 -18 -18 -48 -8 -48 16
0 16 11 27 31 29 4 1 12 -6 19 -15z m-2443 -145 c15 -6 47 -12 71 -13 61 -4
85 -31 86 -95 1 -63 -28 -100 -77 -96 -18 2 -38 3 -45 4 -20 2 -82 71 -82 92
0 10 -4 20 -9 23 -19 12 -18 47 1 71 23 29 19 28 55 14z m-249 -46 c25 -36 33
-72 22 -93 -6 -11 -4 -34 5 -64 16 -52 5 -86 -27 -86 -21 0 -40 33 -32 54 3 9
-8 30 -28 51 -62 69 -73 110 -38 145 29 29 74 26 98 -7z m1973 16 c25 -13 40
-50 32 -78 -6 -23 -50 -51 -78 -51 -23 0 -75 55 -75 79 0 47 72 77 121 50z
m1771 -121 c52 -59 52 -100 0 -151 -33 -32 -44 -37 -94 -39 -50 -3 -55 -5 -42
-19 11 -12 11 -18 2 -27 -7 -7 -9 -12 -5 -12 7 0 0 -10 -43 -57 -13 -16 -31
-23 -55 -23 -19 0 -50 -7 -69 -16 -43 -21 -78 -13 -105 25 -17 23 -19 34 -11
61 11 39 25 50 63 50 17 0 30 7 34 18 9 22 32 39 64 46 21 4 25 10 25 38 0 51
10 67 54 84 22 9 40 20 40 24 0 9 68 39 90 39 8 1 31 -18 52 -41z m-3162 7 c0
-8 -4 -15 -10 -15 -5 0 -10 7 -10 15 0 8 5 15 10 15 6 0 10 -7 10 -15z m927
-7 c32 -30 31 -87 -2 -118 -14 -13 -23 -25 -21 -28 2 -2 44 5 93 16 151 35
316 62 371 61 63 0 235 -57 375 -123 88 -42 96 -48 200 -165 59 -66 107 -125
107 -131 0 -5 13 -34 30 -65 36 -67 66 -182 75 -290 3 -43 14 -100 24 -125 10
-25 29 -74 43 -110 18 -49 29 -65 44 -66 37 -2 85 -35 96 -65 6 -17 12 -28 14
-26 9 8 98 -13 106 -26 18 -28 -5 -99 -47 -144 -24 -25 -40 -30 -76 -20 -35 9
-44 46 -24 93 8 20 15 38 15 41 0 2 -20 1 -45 -3 -30 -4 -45 -3 -45 5 0 6 -7
8 -16 4 -15 -5 -16 0 -10 39 9 58 -3 86 -71 177 -168 223 -396 345 -584 311
-126 -22 -259 -83 -379 -173 -50 -37 -208 -166 -237 -193 -57 -53 -177 -99
-193 -73 -11 17 -28 3 -35 -31 -4 -16 -11 -32 -16 -35 -13 -8 -11 42 2 67 13
23 2 39 -12 18 -8 -11 -9 -10 -4 8 4 14 2 22 -5 22 -8 0 -11 -11 -8 -30 3 -18
-1 -35 -9 -41 -7 -6 -13 -18 -13 -25 0 -8 -4 -14 -10 -14 -18 0 3 -65 34 -104
30 -37 31 -41 30 -138 -1 -58 -6 -103 -12 -107 -6 -3 -12 -24 -14 -46 -2 -22
-7 -43 -12 -47 -5 -3 -9 -61 -8 -127 0 -67 -1 -121 -4 -121 -3 0 -16 12 -30
28 l-25 27 5 -30 c4 -20 3 -25 -3 -15 -13 22 -25 139 -12 121 16 -24 39 34 23
60 -7 10 -12 28 -12 39 0 12 -5 17 -13 14 -15 -5 -32 59 -42 159 -7 59 -16 70
-34 40 -10 -17 -10 -17 -11 0 0 10 5 28 12 40 6 12 14 38 18 57 5 29 10 35 29
32 18 -2 22 2 17 14 -4 9 -1 22 4 30 6 7 10 18 9 26 -1 7 1 31 6 52 4 22 8 47
9 55 1 9 7 26 14 39 7 12 10 27 6 33 -4 6 -1 14 5 18 8 5 4 21 -12 54 l-22 47
-28 -35 c-32 -40 -77 -132 -77 -157 0 -9 -5 -20 -10 -23 -15 -9 -2 -25 15 -18
17 6 20 -14 6 -36 -7 -11 -11 -10 -20 6 -16 30 -60 36 -94 12 -21 -15 -31 -17
-47 -9 -28 15 -49 60 -43 92 7 38 64 50 96 21 12 -11 32 -23 43 -25 21 -5 22
-1 26 81 3 47 3 91 1 96 -2 6 -25 24 -51 41 -47 31 -49 34 -62 104 -12 65 -16
73 -42 82 -45 16 -65 72 -30 85 38 14 73 46 90 86 11 23 31 53 45 65 23 22 30
23 70 14 52 -11 55 -9 81 38 28 52 125 168 169 204 47 37 137 124 137 131 0 3
-11 5 -24 5 -30 0 -76 52 -76 85 0 13 12 37 26 54 32 38 76 42 111 9z m1822
-14 c45 -57 9 -154 -58 -154 -34 0 -87 47 -97 86 -15 60 17 92 93 93 33 1 46
-4 62 -25z m-3451 -134 c22 -21 24 -26 26 -65 1 -17 11 -21 61 -27 65 -9 85
-24 85 -69 0 -49 -61 -72 -123 -46 -27 12 -38 24 -45 49 -7 29 -13 34 -53 41
-44 8 -79 36 -79 64 0 23 56 73 82 73 13 0 34 -9 46 -20z m3276 4 c22 -22 20
-67 -5 -90 -38 -34 -109 -7 -109 43 0 51 78 84 114 47z m-236 -40 c26 -7 32
-54 6 -54 -8 0 -13 -4 -10 -8 2 -4 1 -14 -4 -22 -13 -20 -42 -2 -55 35 -8 22
-6 29 10 41 21 16 22 16 53 8z m-1670 -49 c0 -25 -12 -33 -22 -16 -7 11 3 41
14 41 4 0 8 -11 8 -25z m33 -2 c-8 -15 -10 -15 -11 -2 0 17 10 32 18 25 2 -3
-1 -13 -7 -23z m-797 -9 c9 -3 16 -12 16 -20 0 -8 7 -14 15 -14 23 0 18 -24
-8 -36 -27 -12 -57 -2 -75 26 -23 37 7 61 52 44z m622 -10 c58 -28 58 -91 1
-144 -18 -16 -39 -46 -47 -65 -8 -19 -21 -35 -29 -35 -35 0 -61 13 -61 30 0
19 -46 58 -92 78 -34 14 -36 28 -5 38 12 3 29 13 37 21 26 25 134 93 148 93 8
0 29 -7 48 -16z m-762 -90 c3 -9 6 -29 6 -44 0 -25 -5 -31 -39 -40 -21 -5 -55
-22 -76 -36 -32 -21 -42 -24 -62 -15 -35 16 -48 52 -32 86 25 49 188 88 203
49z m2430 -21 c8 -21 -10 -41 -24 -27 -11 11 -3 44 10 44 4 0 11 -8 14 -17z
m225 -59 c37 -19 50 -46 44 -91 -5 -29 -2 -33 23 -38 45 -11 88 -32 109 -55
18 -19 18 -23 3 -47 -19 -31 -76 -53 -141 -53 -41 0 -53 5 -78 30 -22 21 -30
38 -27 57 3 24 -1 28 -30 34 -66 13 -102 77 -69 119 20 25 80 58 108 59 14 1
40 -6 58 -15z m800 -10 c5 4 12 2 15 -3 6 -9 -43 -20 -62 -13 -8 2 -8 7 1 17
8 9 16 10 24 3 7 -5 17 -7 22 -4z m-3105 -189 c6 -11 19 -27 29 -37 18 -17 16
-58 -3 -58 -5 0 -16 -7 -24 -16 -14 -14 -19 -12 -50 18 -45 45 -53 71 -26 98
25 25 59 23 74 -5z m2266 -195 c0 -11 -7 -20 -15 -20 -27 0 -18 30 13 39 1 1
2 -8 2 -19z m-2174 -250 c19 0 54 -59 54 -92 0 -15 -8 -43 -17 -63 -19 -40
-46 -45 -106 -20 -40 17 -57 40 -57 80 0 50 61 112 98 99 8 -2 20 -4 28 -4z
m-1426 -10 c0 -5 -4 -10 -10 -10 -5 0 -10 5 -10 10 0 6 5 10 10 10 6 0 10 -4
10 -10z m1212 -198 c6 -23 5 -38 -5 -53 -14 -19 -15 -19 -37 -1 -17 13 -21 24
-16 40 4 12 12 22 17 22 5 0 9 7 9 16 0 27 24 9 32 -24z m708 18 c0 -5 -4 -10
-10 -10 -5 0 -10 5 -10 10 0 6 5 10 10 10 6 0 10 -4 10 -10z m1230 -39 c0 -8
-41 -23 -47 -18 -1 2 0 13 4 25 4 18 9 20 24 11 10 -5 19 -14 19 -18z m-736
13 c24 -9 19 -21 -9 -26 -28 -6 -27 -6 -19 16 7 18 7 18 28 10z m-1160 -114
c10 -8 38 -15 63 -15 38 -1 50 -6 75 -34 25 -28 29 -40 24 -69 -4 -29 1 -46
31 -94 20 -32 39 -58 43 -58 4 0 15 9 25 20 32 35 52 25 74 -35 25 -67 25 -67
4 -87 -33 -30 -58 -63 -78 -102 -24 -46 -42 -54 -120 -49 -71 4 -78 -1 -122
-82 -48 -91 -111 -127 -152 -86 -33 33 -27 81 15 136 20 26 32 51 27 56 -4 4
-25 4 -46 -1 -69 -15 -117 15 -117 74 0 29 42 66 76 66 31 0 30 3 -8 51 -36
44 -47 47 -73 19 -13 -14 -31 -20 -61 -20 -24 0 -46 -4 -49 -10 -8 -14 -55
-12 -82 3 -34 19 -103 87 -103 101 0 7 9 21 20 31 16 15 30 17 75 11 l55 -6
44 46 c35 39 49 47 76 46 46 -1 82 -31 98 -79 10 -32 21 -44 50 -56 20 -9 45
-22 54 -29 22 -16 68 4 68 30 0 24 28 49 60 54 l25 4 -27 12 c-15 6 -32 20
-37 31 -8 15 -23 21 -58 23 -40 3 -48 7 -55 30 -8 21 -5 34 14 60 37 53 37 53
92 8z m446 11 c0 -5 -13 -12 -29 -16 -33 -7 -47 -33 -67 -123 -6 -31 -12 -46
-13 -32 -1 42 27 141 45 161 17 19 64 27 64 10z m1149 -227 c20 -46 -12 -61
-50 -23 l-21 21 23 13 c33 18 34 18 48 -11z m136 -25 c20 -38 19 -42 -7 -33
-13 4 -32 8 -42 9 -25 2 -33 23 -12 31 9 3 16 12 16 20 0 22 29 5 45 -27z
m-1301 -6 c7 -18 -14 -37 -27 -24 -9 9 1 41 13 41 4 0 11 -8 14 -17z m27 -91
c27 1 49 0 49 -4 0 -8 -16 -12 -38 -9 -8 1 -20 -3 -28 -10 -12 -10 -19 -8 -36
8 -13 14 -17 26 -12 34 7 11 9 10 12 -4 3 -16 12 -18 53 -15z m1222 -193 c32
-22 57 -47 57 -57 0 -12 -8 -8 -32 15 -18 16 -51 42 -73 57 -22 14 -33 26 -24
26 9 0 41 -18 72 -41z m-1036 -61 c-3 -8 -6 -5 -6 6 -1 11 2 17 5 13 3 -3 4
-12 1 -19z m-18 -64 c17 -99 25 -354 11 -354 -5 0 -10 -7 -10 -15 0 -8 -7 -15
-15 -15 -8 0 -15 7 -15 15 0 8 7 15 15 15 13 0 15 19 11 138 -3 75 -10 164
-15 197 -13 72 -14 95 -3 95 4 0 14 -34 21 -76z m-1028 42 c9 -20 7 -29 -12
-55 -16 -22 -22 -42 -21 -75 2 -37 -3 -49 -29 -75 -22 -22 -40 -31 -64 -31
-45 0 -54 15 -45 79 8 60 27 81 73 81 24 0 28 3 22 18 -25 61 -18 82 30 82 28
0 38 -5 46 -24z m654 -12 c28 -19 32 -39 9 -48 -8 -3 -14 -14 -13 -23 5 -50
-10 -67 -45 -52 -26 12 -27 16 -21 58 6 39 28 81 42 81 2 0 15 -7 28 -16z
m1215 2 c0 -16 -21 -26 -55 -26 -26 0 -40 14 -30 30 10 16 85 13 85 -4z m79 0
c16 -19 -1 -29 -34 -20 -14 3 -25 12 -25 20 0 18 44 18 59 0z m-1045 -22 c29
-11 37 -40 25 -88 -21 -83 -78 -108 -115 -51 -22 34 -10 99 23 125 27 21 41
24 67 14z m2079 -59 c16 -33 16 -36 1 -42 -21 -8 -44 21 -44 54 0 35 24 28 43
-12z m-904 -4 c16 -12 22 -24 18 -35 -8 -20 -27 -21 -27 -1 0 18 -5 19 -32 4
-17 -9 -24 -8 -32 4 -7 8 -20 17 -31 19 -16 4 -12 7 15 15 50 16 62 15 89 -6z
m-2839 -42 c0 -6 -4 -7 -10 -4 -5 3 -10 11 -10 16 0 6 5 7 10 4 6 -3 10 -11
10 -16z m1218 -17 c14 -11 21 -24 17 -34 -6 -14 -10 -14 -33 -2 -15 8 -33 14
-39 14 -16 0 -17 12 -1 28 16 16 29 15 56 -6z m1962 -6 c0 -3 -4 -8 -10 -11
-5 -3 -10 -1 -10 4 0 6 5 11 10 11 6 0 10 -2 10 -4z m-2290 -70 c0 -3 -4 -8
-10 -11 -5 -3 -10 -1 -10 4 0 6 5 11 10 11 6 0 10 -2 10 -4z m846 -84 c-17
-16 -18 -16 -5 5 7 12 15 20 18 17 3 -2 -3 -12 -13 -22z m2085 -112 c10 -14
21 -38 25 -55 5 -26 1 -33 -24 -48 -23 -13 -36 -15 -56 -8 -50 19 -74 92 -43
129 17 21 77 10 98 -18z m-651 -292 c0 -4 -8 -12 -18 -17 -23 -12 -42 3 -35
29 4 15 8 16 29 6 13 -6 24 -14 24 -18z m-87 -71 c-3 -5 -2 -29 2 -54 6 -41 8
-44 22 -31 12 13 13 19 2 36 -10 17 -10 24 5 47 9 14 24 29 32 32 23 9 45 -17
43 -51 -2 -17 3 -41 9 -53 18 -33 4 -168 -19 -189 -11 -10 -19 -26 -19 -37 0
-11 3 -17 6 -14 12 11 44 -13 44 -33 0 -24 15 -26 24 -4 5 13 9 14 21 4 8 -7
15 -19 15 -26 0 -8 4 -14 9 -14 18 0 17 -35 -2 -62 -10 -16 -15 -28 -10 -28 4
0 -18 -26 -49 -57 -76 -78 -72 -66 -107 -348 -8 -69 13 -248 37 -315 11 -30
40 -103 66 -162 25 -59 46 -111 46 -114 0 -4 18 -48 39 -98 22 -50 60 -143 84
-206 24 -63 67 -167 95 -230 27 -63 58 -136 68 -161 18 -47 19 -47 73 -51 44
-4 59 -10 78 -32 13 -15 23 -33 23 -41 0 -25 -41 -84 -54 -79 -9 3 -15 -5 -19
-21 -4 -25 -3 -27 27 -22 46 7 102 -19 116 -54 11 -26 10 -35 -11 -74 -18 -33
-26 -41 -32 -30 -16 28 -30 16 -24 -21 4 -25 2 -37 -8 -40 -19 -8 -29 -62 -15
-79 9 -11 10 -26 3 -53 -8 -33 -7 -42 9 -63 11 -13 34 -28 51 -34 44 -14 60
-57 41 -110 -15 -46 -5 -66 38 -70 37 -4 38 -4 38 -20 0 -32 84 -87 150 -98
94 -17 390 -2 468 24 17 6 64 28 103 49 38 22 87 44 107 51 88 28 131 43 187
69 99 44 188 64 265 57 70 -6 110 -22 110 -44 0 -7 7 -13 15 -13 8 0 15 -7 15
-16 0 -10 -6 -14 -15 -10 -19 7 -19 -8 0 -38 13 -19 13 -28 4 -49 -7 -15 -15
-24 -20 -22 -4 3 -18 -8 -31 -24 -14 -16 -35 -32 -49 -36 -37 -12 -88 -48 -92
-67 -3 -11 -12 -15 -24 -12 -11 3 -25 -2 -32 -10 -8 -9 -21 -16 -31 -16 -9 0
-29 -9 -43 -20 -14 -11 -31 -20 -39 -20 -12 0 -70 -27 -128 -60 -29 -17 -129
-41 -180 -44 -19 -1 -40 -5 -47 -9 -6 -4 -18 -4 -26 -1 -8 3 -18 1 -22 -5 -4
-7 -14 -4 -27 9 -26 24 -46 27 -27 4 13 -16 35 -70 44 -106 3 -12 -6 -18 -35
-23 -22 -4 -44 -4 -50 0 -5 3 -10 -1 -10 -9 0 -13 12 -16 60 -16 33 0 60 -4
60 -10 0 -6 -28 -10 -64 -10 l-64 0 -21 -42 c-22 -47 -48 -149 -47 -188 1 -24
3 -25 66 -22 60 3 63 2 45 -12 -11 -9 -25 -20 -32 -26 -7 -5 -35 -10 -62 -10
-27 0 -53 -5 -56 -11 -17 -26 -30 1 -30 64 0 58 2 67 17 67 19 0 24 15 8 25
-16 10 -12 28 5 22 18 -7 30 10 18 26 -14 21 -9 42 20 72 28 31 34 50 17 60
-5 3 -10 11 -10 16 0 6 5 7 10 4 16 -10 12 33 -12 109 -20 68 -21 70 -29 40
l-9 -31 -157 1 c-140 1 -161 4 -188 21 -47 31 -55 37 -101 83 -24 23 -51 42
-61 42 -10 0 -27 6 -38 14 -11 7 -63 28 -115 45 -52 18 -103 38 -115 44 -40
24 -115 81 -115 89 0 13 67 9 131 -7 39 -10 65 -12 77 -6 9 5 37 12 60 16 46
7 46 23 0 27 -20 2 -27 9 -30 29 -2 15 -1 37 4 49 7 18 13 20 38 15 l30 -7 0
49 c0 26 -4 54 -9 62 -10 15 -31 7 -31 -13 0 -7 -8 -24 -18 -37 -11 -13 -22
-36 -25 -50 -4 -15 -16 -29 -27 -32 -17 -4 -20 0 -20 25 0 17 4 27 10 23 6 -3
7 1 4 10 -4 9 1 21 11 29 13 9 16 20 11 40 -3 14 -2 36 4 47 6 11 9 28 7 37
-3 15 -5 14 -12 -3 -10 -24 -40 -55 -54 -55 -5 0 -16 -9 -24 -21 l-15 -21 -41
26 -41 26 51 98 c29 53 60 111 70 128 21 34 32 94 18 94 -5 0 -9 -5 -9 -10 0
-14 -81 -94 -103 -103 -9 -3 -17 -13 -17 -21 0 -26 -18 -27 -56 -1 -20 14 -40
25 -45 25 -4 0 -19 4 -34 10 -25 9 -25 11 -10 39 8 17 35 59 60 94 25 36 45
69 45 73 -1 5 -32 -25 -70 -66 -78 -84 -94 -84 -24 0 25 30 54 71 64 91 l19
37 -40 4 c-35 3 -40 1 -45 -19 -4 -13 -16 -26 -30 -29 -13 -3 -24 -11 -24 -18
0 -7 -4 -6 -9 2 -13 21 -72 -46 -69 -77 4 -31 -16 -37 -40 -13 -28 28 -61 37
-68 18 -4 -12 -11 -13 -29 -4 -19 8 -27 7 -40 -6 -9 -9 -23 -16 -31 -16 -8 0
-17 -7 -20 -15 -4 -8 -12 -15 -20 -15 -8 0 -14 -4 -14 -10 0 -5 -8 -10 -17
-10 -9 0 -14 -3 -10 -6 9 -10 -132 -112 -173 -125 -19 -7 -47 -20 -61 -30 -14
-10 -29 -16 -32 -13 -3 3 -28 1 -57 -4 -60 -11 -86 -7 -95 16 -9 24 6 32 109
53 112 23 132 32 152 74 8 17 29 38 47 47 48 25 116 54 170 75 27 10 76 43
109 72 51 46 57 56 42 61 -11 4 -31 -1 -49 -12 -39 -23 -160 -26 -172 -3 -5 8
-24 16 -43 19 -19 2 -39 5 -45 7 -21 6 -97 -12 -123 -30 -15 -10 -54 -36 -87
-57 -33 -21 -62 -42 -65 -46 -5 -6 -60 -20 -60 -15 0 1 -10 56 -21 122 -24
143 -43 529 -38 760 9 362 -6 675 -36 790 -25 93 -65 164 -112 199 -23 17 -46
43 -52 58 -6 18 -27 36 -62 54 -61 30 -172 132 -165 150 3 7 -2 18 -10 25 -9
7 -24 30 -35 51 -22 44 -63 168 -56 174 5 6 117 -56 117 -65 0 -9 93 -71 106
-71 4 0 -15 16 -44 37 -29 20 -51 38 -49 40 2 1 37 -6 78 -16 127 -32 258 -44
432 -38 167 6 222 15 349 63 85 32 141 73 170 123 14 24 25 35 30 28 4 -6 4
-15 1 -20z m514 -89 c-3 -7 -5 -2 -5 12 0 14 2 19 5 13 2 -7 2 -19 0 -25z m94
-25 c19 -27 40 -60 46 -74 28 -65 155 -225 270 -341 70 -71 122 -128 115 -128
-6 0 -21 10 -34 23 -45 45 -171 147 -182 147 -14 1 -27 19 -130 190 -49 80
-98 159 -110 175 -35 47 -38 55 -24 55 8 0 30 -21 49 -47z m-1805 -109 c10
-40 10 -53 -2 -76 -18 -35 -37 -37 -28 -3 3 14 2 25 -4 25 -5 0 -13 -21 -17
-46 -5 -35 -9 -44 -18 -35 -17 17 -10 143 9 157 7 6 11 14 8 17 -3 3 -3 11 1
16 13 21 38 -7 51 -55z m-846 -20 c-17 -17 -31 -23 -46 -20 -12 3 -27 0 -33
-8 -9 -11 -7 -15 9 -19 11 -3 20 -10 20 -16 0 -17 -29 -13 -48 5 -10 11 -17
13 -20 5 -7 -20 -22 -12 -22 12 0 16 9 27 33 37 55 23 71 28 101 29 l29 1 -23
-26z m312 -30 c1 -33 3 -35 11 -17 5 12 16 24 23 27 19 7 47 -23 38 -43 -3 -9
-11 -32 -17 -51 l-12 -35 -3 38 c-3 40 -22 42 -22 3 0 -13 -9 -34 -20 -47 -22
-27 -26 -24 -62 41 -24 43 -30 40 -152 -95 -20 -21 -36 -45 -36 -52 0 -18 -17
-16 -24 3 -4 9 2 32 13 50 17 29 20 71 6 94 -2 3 1 12 6 20 8 13 12 12 24 -4
8 -11 15 -29 15 -40 1 -18 2 -19 13 -6 13 17 85 66 131 90 16 8 37 27 45 42
19 33 21 31 23 -18z m2138 -9 c7 -9 10 -18 7 -22 -8 -7 -37 15 -37 28 0 14 16
11 30 -6z m48 -86 c-3 -8 -7 -3 -11 10 -4 17 -3 21 5 13 5 -5 8 -16 6 -23z
m-1727 -56 c-10 -17 -10 -16 -11 3 0 23 13 41 18 25 2 -6 -1 -18 -7 -28z
m-749 3 c14 -20 8 -35 -19 -50 -16 -8 -47 -33 -71 -55 -49 -48 -67 -50 -104
-16 -15 14 -32 25 -37 25 -6 0 -8 6 -5 14 8 21 92 58 134 60 30 1 35 4 32 23
-3 21 0 22 30 16 18 -3 36 -11 40 -17z m2516 -83 c22 -43 61 -116 88 -163 27
-47 61 -107 74 -133 37 -72 54 -77 75 -21 14 36 15 48 5 54 -7 4 -9 13 -6 19
4 7 -1 11 -13 11 -11 0 -23 -4 -26 -10 -3 -5 -10 -10 -16 -10 -13 0 -11 47 2
56 8 4 7 9 -2 15 -12 7 -11 11 2 24 22 22 44 10 74 -41 14 -24 30 -44 34 -44
5 0 -1 -31 -12 -70 l-21 -70 34 -35 c18 -19 31 -37 28 -40 -5 -5 -54 13 -89
32 -4 2 4 -18 18 -44 66 -129 105 -203 133 -252 17 -29 29 -58 28 -63 -6 -18
-69 87 -178 297 -84 160 -124 235 -161 302 -25 44 -119 249 -119 259 0 15 14
-7 48 -73z m-1778 33 c0 -3 -4 -8 -10 -11 -5 -3 -10 -1 -10 4 0 6 5 11 10 11
6 0 10 -2 10 -4z m1911 -75 c11 -13 19 -29 19 -35 0 -6 -16 11 -35 38 -19 27
-35 57 -35 65 1 9 8 3 17 -14 9 -16 24 -41 34 -54z m-2944 -6 c0 -8 -6 -15
-14 -15 -14 0 -17 12 -6 23 11 11 20 8 20 -8z m-97 -75 c0 -5 -7 -10 -16 -10
-8 0 -12 5 -9 10 3 6 10 10 16 10 5 0 9 -4 9 -10z m-170 -14 c0 -2 -7 -7 -16
-10 -8 -3 -12 -2 -9 4 6 10 25 14 25 6z m151 -14 c-7 -2 -18 1 -23 6 -8 8 -4
9 13 5 13 -4 18 -8 10 -11z m2575 -44 c-3 -13 -6 -31 -6 -40 0 -18 -26 -48
-40 -48 -5 0 -7 13 -4 30 4 17 1 36 -5 44 -10 11 -8 17 6 25 10 6 26 11 37 11
14 0 17 -5 12 -22z m-1525 -87 c26 -21 27 -19 -26 -36 -11 -3 -15 4 -15 25 0
35 9 37 41 11z m-994 -13 c-3 -8 -6 -5 -6 6 -1 11 2 17 5 13 3 -3 4 -12 1 -19z
m3302 -8 c4 0 20 -24 35 -52 14 -29 49 -84 76 -123 49 -68 62 -101 38 -93 -6
2 -16 13 -22 24 -6 10 -23 31 -38 47 -16 15 -28 37 -28 50 0 16 -3 18 -9 9 -6
-10 -11 -5 -20 19 -6 18 -9 34 -7 37 3 2 -9 24 -24 49 -16 25 -26 51 -22 57 4
7 8 5 10 -6 2 -10 7 -18 11 -18z m-3501 -1 c-2 -6 -8 -10 -13 -10 -5 0 -11 4
-13 10 -2 6 4 11 13 11 9 0 15 -5 13 -11z m2722 -154 c0 -26 -18 -45 -42 -45
-38 0 -16 -29 37 -49 65 -24 76 -26 50 -8 -26 20 -2 31 32 15 17 -8 29 -23 31
-37 4 -23 2 -24 -38 -17 -22 3 -64 14 -93 24 -42 15 -54 24 -61 48 -4 16 -12
37 -17 46 -13 26 -11 60 3 56 7 -3 16 -20 22 -39 6 -23 11 -28 13 -16 3 9 -5
33 -18 53 -17 28 -19 38 -9 44 7 4 10 15 6 25 -3 9 14 -5 39 -32 25 -26 45
-57 45 -68z m-2215 -49 c22 -22 29 -24 56 -14 39 13 64 -4 35 -25 -16 -12 -16
-14 -2 -26 21 -17 21 -45 1 -37 -11 4 -15 -1 -15 -18 0 -51 -25 -76 -33 -33
-3 17 -5 15 -6 -9 0 -16 -8 -39 -16 -50 -14 -18 -14 -17 -15 14 0 70 -29 109
-76 103 -7 -1 -14 15 -16 35 -3 29 -1 38 14 42 10 2 15 9 12 14 -6 10 12 28
29 28 4 0 19 -11 32 -24z m3695 -76 c0 -5 -4 -10 -10 -10 -5 0 -10 5 -10 10 0
6 5 10 10 10 6 0 10 -4 10 -10z m11 -73 c-13 -13 -26 -3 -16 12 3 6 11 8 17 5
6 -4 6 -10 -1 -17z m3169 -27 c0 -5 -2 -10 -4 -10 -3 0 -8 5 -11 10 -3 6 -1
10 4 10 6 0 11 -4 11 -10z m-3091 -26 c-15 -18 -22 -13 -13 10 3 9 10 13 16
10 5 -3 4 -12 -3 -20z m-69 0 c0 -11 -5 -14 -16 -10 -11 4 -14 1 -12 -12 2
-11 11 -16 26 -14 26 4 29 -13 5 -27 -15 -9 -14 -10 10 -11 36 0 35 -17 -3
-22 -19 -3 -30 0 -30 8 0 6 -6 17 -14 23 -27 23 -26 50 2 66 34 18 32 18 32
-1z m77 -106 c-3 -7 -5 -2 -5 12 0 14 2 19 5 13 2 -7 2 -19 0 -25z m-40 -44
c-3 -3 -12 -4 -19 -1 -8 3 -5 6 6 6 11 1 17 -2 13 -5z m-916 -143 c10 -13 16
-28 12 -34 -4 -6 -8 -23 -9 -37 -2 -14 -6 -40 -9 -57 -4 -20 -2 -33 5 -33 5 0
10 -7 10 -15 0 -18 5 -19 32 -4 20 11 21 9 15 -29 -3 -24 -1 -42 5 -44 6 -2 2
-12 -8 -23 -11 -10 -19 -23 -19 -29 0 -21 -40 -17 -65 6 -16 15 -37 23 -60 23
-32 0 -35 2 -32 27 1 14 -2 29 -8 33 -13 8 -2 87 15 100 7 6 14 19 16 30 7 32
24 18 30 -25 9 -65 25 -70 38 -10 17 81 14 103 -19 135 -16 16 -30 33 -30 37
0 14 60 -24 81 -51z m-3497 27 c9 -12 16 -34 16 -49 0 -22 6 -28 32 -33 34 -7
58 -23 58 -38 0 -6 -9 -8 -21 -5 -18 5 -20 2 -14 -24 8 -36 -2 -54 -21 -38
-11 9 -14 8 -14 -3 0 -21 -42 -57 -47 -41 -3 9 -13 6 -34 -9 -35 -26 -44 -21
-25 18 21 41 30 84 18 84 -36 0 -92 -108 -92 -176 0 -18 -4 -36 -10 -39 -26
-16 -25 126 2 148 36 30 66 107 42 107 -19 0 -18 15 4 62 14 33 21 38 43 35
19 -2 25 1 22 10 -9 22 25 15 41 -9z m4100 -30 c4 -24 9 -53 13 -66 4 -16 2
-21 -9 -17 -9 4 -19 -4 -27 -21 -18 -41 -26 -20 -8 24 9 22 14 58 12 81 -5 54
11 53 19 -1z m-79 -120 c-5 -47 -4 -51 8 -35 21 26 32 21 14 -7 -12 -17 -13
-26 -4 -35 8 -8 5 -17 -11 -34 -12 -13 -22 -27 -22 -31 0 -9 -47 -56 -56 -56
-3 0 -3 14 1 30 4 19 3 30 -4 30 -6 0 -11 7 -11 15 0 8 5 15 10 15 6 0 10 12
10 28 0 45 17 92 42 112 13 11 25 19 26 20 2 0 1 -24 -3 -52z m693 10 c27 -27
-3 -96 -59 -134 -15 -10 -42 -43 -61 -73 -23 -39 -34 -50 -36 -37 -2 10 10 37
27 61 l30 42 -25 12 c-20 9 -31 8 -54 -4 -39 -20 -40 -19 -40 13 0 28 58 95
105 120 27 15 98 15 113 0z m1217 1 c-16 -5 -44 -14 -61 -19 -17 -6 -37 -10
-45 -9 -20 1 92 38 116 38 13 -1 10 -4 -10 -10z m-155 -39 c-14 -4 -34 -8 -45
-8 l-20 -1 20 9 c11 5 31 8 45 8 l25 0 -25 -8z m-4063 -63 c48 -47 86 -97 80
-103 -3 -3 -18 3 -33 12 -20 14 -29 15 -32 6 -2 -7 -27 -40 -55 -74 -31 -37
-43 -56 -30 -49 32 17 38 14 18 -9 -18 -19 -17 -20 4 -20 12 0 31 5 43 11 11
6 22 9 24 6 9 -9 -19 -55 -40 -65 -18 -9 -19 -11 -3 -11 35 -2 10 -25 -37 -36
-38 -8 -45 -12 -35 -22 11 -11 8 -13 -13 -13 -14 0 -31 6 -37 14 -26 31 -29
206 -5 244 21 32 35 28 23 -7 -12 -34 -8 -93 6 -98 6 -1 17 8 25 21 8 13 32
50 53 81 l38 57 -17 37 c-9 20 -19 39 -21 44 -11 18 15 4 44 -26z m3870 27
c-3 -3 -12 -4 -19 -1 -8 3 -5 6 6 6 11 1 17 -2 13 -5z m1203 -50 c0 -8 -4 -12
-10 -9 -5 3 -10 10 -10 16 0 5 5 9 10 9 6 0 10 -7 10 -16z m40 -174 c0 -5 -5
-10 -11 -10 -5 0 -7 5 -4 10 3 6 8 10 11 10 2 0 4 -4 4 -10z m15 -38 c0 -18
-20 -15 -23 4 -3 10 1 15 10 12 7 -3 13 -10 13 -16z m-5615 -89 c18 -23 20
-35 15 -73 -4 -25 -11 -49 -16 -54 -12 -13 -12 -56 1 -56 6 0 10 8 10 17 0 21
39 63 59 63 21 0 61 -40 61 -62 0 -10 -5 -28 -12 -41 -6 -12 -14 -28 -18 -36
-15 -33 -25 -18 -25 36 0 31 -4 58 -10 60 -5 1 -19 -14 -30 -35 -30 -55 -56
-50 -70 13 -5 28 -15 49 -20 47 -6 -1 -20 -31 -31 -65 -12 -34 -40 -102 -63
-152 -28 -60 -40 -98 -36 -113 5 -19 2 -23 -12 -20 -26 5 -27 31 -3 80 19 39
21 53 15 150 l-7 107 46 23 c25 12 46 28 46 34 0 19 -50 54 -76 54 -49 0 -11
36 71 66 36 14 72 -1 105 -43z m5614 41 c10 -25 -1 -29 -14 -5 -6 12 -7 21 -1
21 5 0 12 -7 15 -16z m-1851 -154 c-3 -11 -9 -20 -14 -20 -10 0 -11 12 -3 34
9 22 23 10 17 -14z m-594 -167 c7 -13 20 -17 50 -14 24 1 41 -2 41 -8 0 -6 -7
-11 -15 -11 -8 0 -15 -4 -15 -9 0 -5 7 -14 15 -21 8 -7 15 -19 15 -27 0 -9 -6
-13 -15 -9 -9 3 -15 0 -15 -10 0 -8 -5 -25 -12 -37 -12 -22 -12 -21 -18 8 l-7
30 -8 -30 c-8 -31 -23 -55 -34 -55 -3 0 -4 25 -3 55 3 43 0 56 -12 61 -23 9
-20 21 6 27 21 6 18 22 -4 22 -6 0 -13 6 -16 14 -3 10 0 12 13 7 15 -5 16 -4
5 9 -10 12 -10 15 3 15 9 0 20 -8 26 -17z m-379 -69 c0 -8 -9 -40 -19 -71 -25
-74 -37 -173 -21 -173 18 0 0 -69 -26 -97 -13 -14 -24 -30 -24 -34 0 -5 -7 -9
-15 -9 -8 0 -15 -4 -15 -9 0 -5 -7 -11 -15 -14 -10 -5 -9 2 5 26 11 18 20 44
20 60 0 22 -4 27 -24 27 -14 0 -28 -5 -31 -10 -4 -6 -11 -8 -16 -5 -5 4 -2 20
8 38 9 18 17 39 17 47 1 9 9 14 21 13 16 -1 29 18 67 100 35 74 46 109 41 127
-6 22 -5 24 10 11 9 -7 17 -20 17 -27z m979 -22 c-1 -15 2 -35 6 -44 9 -22 -8
-23 -29 -2 -15 14 -14 50 1 77 9 15 23 -5 22 -31z m1941 28 c0 -5 -4 -10 -10
-10 -5 0 -10 5 -10 10 0 6 5 10 10 10 6 0 10 -4 10 -10z m-115 -10 c3 -5 -1
-10 -9 -10 -9 0 -16 5 -16 10 0 6 4 10 9 10 6 0 13 -4 16 -10z m-6545 -69 c0
-4 -4 -12 -10 -19 -7 -8 -7 -9 1 -3 13 11 51 2 43 -10 -3 -5 9 -12 26 -15 29
-6 70 -49 70 -73 0 -15 -30 -29 -51 -24 -11 3 -19 0 -19 -6 0 -18 -21 -13 -40
11 -15 19 -20 20 -34 9 -10 -9 -16 -10 -16 -2 0 6 -7 11 -16 11 -16 0 -43 27
-44 43 0 4 9 3 21 -4 14 -7 24 -8 31 -1 7 7 -4 14 -33 22 -24 7 -50 14 -57 16
-7 2 -11 8 -8 13 3 5 -2 7 -13 4 -10 -3 -22 0 -25 5 -6 9 48 24 124 35 28 3
50 -2 50 -12z m-750 -62 c0 -6 11 -9 25 -7 13 2 24 -1 25 -7 0 -5 -15 -10 -32
-10 -23 0 -34 5 -36 18 -2 9 1 17 7 17 6 0 11 -5 11 -11z m4661 -91 c6 -11 8
-22 6 -25 -7 -7 -39 12 -60 34 -16 19 -16 19 13 15 17 -2 35 -13 41 -24z
m-4022 18 c-2 -2 -21 -9 -41 -14 -31 -8 -38 -8 -38 4 0 10 12 14 42 14 23 0
39 -2 37 -4z m338 -25 c12 -19 8 -31 -9 -31 -5 0 -6 5 -3 10 4 6 1 17 -5 25
-7 8 -8 15 -4 15 5 0 15 -9 21 -19z m-70 -18 c-15 -16 -17 -16 -17 -1 0 9 6
18 13 21 20 7 22 -2 4 -20z m3826 -50 c-4 -10 -20 -33 -36 -52 -23 -27 -28
-40 -23 -63 3 -18 2 -27 -4 -23 -20 12 -10 63 20 100 17 21 30 42 30 46 0 5 4
9 10 9 5 0 7 -8 3 -17z m-4118 -23 c4 -6 -5 -10 -19 -10 -14 0 -26 5 -26 10 0
6 9 10 19 10 11 0 23 -4 26 -10z m-60 -10 c-3 -5 -13 -10 -21 -10 -8 0 -12 5
-9 10 3 6 13 10 21 10 8 0 12 -4 9 -10z m90 -97 c-14 -14 -55 -10 -55 5 0 14
45 28 57 19 10 -7 9 -12 -2 -24z m3666 -2 c-6 -11 -11 -35 -12 -53 l-1 -33
-13 30 c-11 24 -11 32 -1 40 7 6 17 21 21 35 5 14 10 20 12 13 2 -7 0 -21 -6
-32z m-3731 18 c0 -6 -7 -9 -15 -5 -8 3 -15 1 -15 -4 0 -5 12 -13 27 -16 25
-7 25 -8 8 -14 -11 -4 -24 -4 -29 1 -5 5 -15 4 -21 -1 -7 -6 -19 -8 -28 -5
-13 5 -12 10 7 30 22 24 66 33 66 14z m210 -29 c26 -15 -14 -23 -74 -16 -45 6
-53 10 -49 25 4 16 10 17 56 9 29 -6 59 -14 67 -18z m2318 -196 c52 -21 35
-39 -35 -38 -50 1 -60 -2 -56 -15 2 -9 -6 -31 -17 -48 -16 -26 -26 -33 -52
-33 -55 0 -76 10 -81 38 -4 22 15 92 25 92 2 0 21 7 43 15 45 16 119 11 173
-11z m-1521 -56 c39 -44 38 -49 -6 -42 -34 5 -41 4 -41 -10 0 -9 5 -16 12 -16
19 0 0 -13 -37 -26 -30 -10 -35 -9 -35 4 0 8 8 21 18 28 16 12 15 13 -7 14
-44 0 -3 30 43 30 l41 0 -25 20 c-24 18 -24 20 -4 20 11 0 30 -10 41 -22z
m102 -31 c-18 -14 -14 -37 6 -37 8 0 16 -4 20 -10 3 -5 -11 -3 -32 4 -45 15
-53 33 -21 45 33 14 46 13 27 -2z m-39 -54 c2 -2 -2 -8 -10 -14 -13 -8 -13
-11 3 -20 17 -10 24 -39 9 -39 -7 0 -29 36 -50 84 -4 8 37 -1 48 -11z m45 -34
c10 -30 2 -32 -12 -3 -6 13 -7 24 -3 24 5 0 12 -9 15 -21z m1059 -34 c19 -14
18 -15 -15 -15 -28 -1 -31 -2 -16 -11 19 -11 22 -53 7 -93 -7 -21 -16 -26 -42
-26 -66 0 -78 8 -78 54 0 65 37 104 100 105 14 0 34 -6 44 -14z m736 -120 c0
-8 -7 -15 -15 -15 -16 0 -20 12 -8 23 11 12 23 8 23 -8z m-804 -140 c-21 -16
-21 -17 12 -34 23 -12 31 -62 13 -90 -9 -15 -71 -22 -71 -8 0 4 -9 7 -20 7
-16 0 -20 7 -20 38 0 20 9 52 20 70 16 26 26 32 52 32 31 -1 32 -1 14 -15z
m427 -59 c51 -19 106 -38 122 -44 l30 -10 -29 -1 c-15 -1 -69 10 -120 23 -50
14 -117 30 -148 36 -79 16 -83 30 -8 30 44 0 86 -9 153 -34z m812 4 c3 -5 -1
-10 -9 -10 -9 0 -16 5 -16 10 0 6 4 10 9 10 6 0 13 -4 16 -10z m669 -109 c3
-4 1 -24 -4 -43 -9 -31 -15 -36 -47 -41 -20 -4 -39 -4 -41 -2 -3 2 1 24 7 48
12 40 15 44 46 45 19 1 36 -2 39 -7z m-1103 -57 c7 -9 19 -30 25 -48 7 -17 18
-46 25 -64 12 -28 11 -37 -1 -60 -35 -61 -155 -93 -208 -56 -41 29 -45 60 -16
121 23 49 28 54 50 49 23 -6 26 -2 23 32 0 4 -7 6 -16 4 -25 -5 -9 22 18 29
44 13 86 9 100 -7z m756 -185 c35 -1 60 -5 57 -10 -8 -13 -110 -11 -155 3 -50
14 -51 29 -1 17 20 -5 65 -9 99 -10z m-1865 -151 c-7 -7 -12 -8 -12 -2 0 14
12 26 19 19 2 -3 -1 -11 -7 -17z m-2312 -98 c-20 -13 -33 -13 -25 0 3 6 14 10
23 10 15 0 15 -2 2 -10z m2360 -61 c0 -4 -7 -6 -15 -3 -8 4 -15 10 -15 15 0 4
7 6 15 3 8 -4 15 -10 15 -15z m-20 -41 c0 -6 -7 -5 -15 2 -8 7 -15 17 -15 22
0 6 7 5 15 -2 8 -7 15 -17 15 -22z m-562 -52 c-9 -33 -24 -53 -34 -44 -3 4 2
22 11 42 10 20 15 42 12 50 -3 8 -3 17 1 21 12 11 19 -38 10 -69z m2792 -13
c-1 -18 -19 -35 -29 -28 -9 5 -9 10 0 21 12 15 29 19 29 7z m-2840 -53 c0 -5
-5 -10 -11 -10 -5 0 -7 5 -4 10 3 6 8 10 11 10 2 0 4 -4 4 -10z m2940 -35 c0
-8 -6 -15 -14 -15 -17 0 -28 14 -19 24 12 12 33 6 33 -9z m128 -12 c1 -10 4
-35 8 -56 7 -42 -14 -77 -48 -77 -24 0 -23 8 5 30 12 10 19 22 15 26 -10 10
-80 -45 -76 -59 5 -16 89 -58 108 -54 8 1 14 10 12 20 -2 10 4 17 13 17 22 0
18 -37 -6 -50 -15 -9 -31 -7 -67 5 -59 20 -82 37 -87 65 -5 25 20 80 35 80 6
0 10 6 10 14 0 8 14 17 30 21 17 4 30 13 30 21 0 20 15 17 18 -3z m-362 -226
c39 -40 51 -200 18 -227 -11 -10 -12 -5 -7 24 3 19 2 43 -1 53 -12 30 -35 -24
-36 -82 0 -30 -4 -45 -9 -37 -10 16 -3 103 10 117 13 13 11 35 -2 35 -7 0 -18
-8 -25 -17 -12 -16 -14 -12 -12 32 1 28 7 59 15 70 7 11 13 27 13 37 0 24 11
22 36 -5z m-18 -334 c14 -43 -1 -42 -26 1 -14 24 -17 36 -9 39 16 6 22 -1 35
-40z m-578 -23 c11 -11 20 -33 20 -48 0 -37 -35 -75 -61 -67 -37 12 -19 -20
26 -48 55 -33 81 -36 66 -8 -13 23 -3 35 16 20 17 -15 17 -34 -2 -49 -12 -10
-24 -10 -61 1 -79 24 -108 70 -83 132 8 17 12 38 11 46 -2 8 1 10 9 5 9 -5 11
-1 7 14 -8 29 24 30 52 2z m-1986 -46 c7 -20 -18 -46 -37 -38 -12 4 -12 10 -3
30 13 27 31 31 40 8z m106 -161 c0 -22 -2 -24 -16 -13 -19 17 -41 56 -25 46 6
-4 11 -2 11 5 0 8 4 8 15 -1 8 -7 15 -24 15 -37z m81 -109 c7 -9 13 -41 14
-76 0 -48 -4 -62 -19 -74 -25 -18 -35 -18 -43 2 -3 9 3 23 16 35 12 11 19 25
15 31 -4 6 -19 -2 -37 -20 l-30 -31 18 -46 c19 -52 69 -115 91 -115 18 0 18
14 -1 30 -22 19 -18 32 8 25 29 -9 57 -42 51 -60 -17 -42 -85 -14 -139 58 -35
46 -37 52 -33 107 4 60 43 150 64 150 6 0 18 -7 25 -16z m2670 -265 c18 -18
21 -29 16 -73 -4 -28 -9 -62 -12 -76 -3 -14 2 -8 11 13 18 41 30 46 50 20 17
-22 17 -44 3 -80 l-12 -28 -10 35 -10 35 -12 -35 c-15 -44 -37 -45 -46 -2 -8
40 -23 59 -33 43 -4 -6 -14 -23 -22 -39 -13 -26 -14 -26 -14 -4 0 12 7 33 15
46 20 31 10 76 -16 76 -24 0 -24 2 1 50 24 47 57 53 91 19z m-517 -200 c-24
-27 -28 -17 -7 20 13 21 19 26 21 15 2 -8 -4 -24 -14 -35z m-38 -57 c-18 -16
-18 -16 -6 6 6 13 14 21 18 18 3 -4 -2 -14 -12 -24z"/>
<path d="M3960 8493 c0 -4 9 -14 19 -20 16 -10 19 -9 17 5 -3 17 -36 31 -36
15z"/>
<path d="M3900 8476 c0 -3 4 -16 10 -30 10 -26 5 -30 -37 -29 -7 1 -10 -3 -7
-8 3 -5 14 -9 25 -9 11 0 24 -10 29 -22 8 -22 9 -22 9 5 1 20 8 31 29 39 l27
12 -27 4 c-20 2 -28 9 -28 23 0 10 -7 19 -15 19 -8 0 -15 -2 -15 -4z"/>
<path d="M4047 8449 c7 -7 15 -10 18 -7 3 3 -2 9 -12 12 -14 6 -15 5 -6 -5z"/>
<path d="M3565 8370 c-16 -7 -17 -9 -3 -9 9 -1 20 4 23 9 7 11 7 11 -20 0z"/>
<path d="M3622 8339 c2 -7 10 -15 17 -17 8 -3 12 1 9 9 -2 7 -10 15 -17 17 -8
3 -12 -1 -9 -9z"/>
<path d="M3467 8317 c-17 -11 -35 -25 -39 -31 -4 -6 -8 -7 -8 -1 0 6 -5 3 -10
-5 -14 -21 -12 -50 2 -47 15 2 38 23 38 33 0 9 30 33 58 44 12 5 22 13 22 18
0 15 -29 10 -63 -11z"/>
<path d="M3593 8307 c-4 -7 -21 -19 -37 -27 -56 -29 -66 -35 -66 -42 0 -5 10
-8 23 -9 12 0 16 -3 9 -6 -7 -3 -38 -20 -69 -39 -73 -44 -94 -78 -88 -146 4
-62 -3 -118 -16 -118 -5 0 -7 39 -4 88 3 57 2 78 -4 62 -5 -14 -9 -65 -10
-113 -1 -84 0 -88 19 -82 11 4 20 2 20 -4 0 -6 -4 -11 -8 -11 -5 0 -21 -19
-35 -41 -17 -26 -22 -39 -13 -36 8 3 17 1 20 -6 2 -7 5 -4 5 7 1 16 3 16 17 5
13 -10 17 -10 25 2 8 12 12 11 24 -5 8 -11 15 -15 15 -10 0 6 -7 19 -15 30 -8
10 -14 24 -14 29 -1 15 67 46 74 35 4 -6 11 -10 17 -10 7 0 6 5 -1 14 -13 16
1 32 18 21 6 -3 15 4 21 15 9 17 14 19 26 9 11 -9 14 -7 14 10 0 14 6 21 18
21 10 0 40 11 68 24 100 49 180 77 312 112 60 16 270 19 320 5 17 -5 32 -6 32
-2 0 13 -94 35 -156 36 -60 2 -136 -5 -224 -20 -25 -4 -41 -4 -37 1 4 4 20 10
34 12 15 2 34 7 42 11 9 5 39 8 66 8 47 0 50 2 46 24 -2 13 -4 35 -5 48 0 13
-8 27 -16 32 -21 11 -284 26 -288 17 -2 -5 -17 -8 -34 -8 -16 0 -85 -24 -154
-54 -68 -30 -124 -50 -124 -46 0 16 89 67 147 84 117 36 128 45 86 73 -19 13
-21 12 -19 -4 1 -22 -38 -30 -60 -12 -12 10 -12 14 -2 20 9 6 10 9 1 9 -7 0
-16 -6 -20 -13z m275 -155 c2 -6 -6 -10 -17 -9 -22 1 -26 8 -14 21 9 9 26 3
31 -12z m-298 -82 c0 -5 -5 -10 -11 -10 -5 0 -7 5 -4 10 3 6 8 10 11 10 2 0 4
-4 4 -10z"/>
<path d="M3370 8238 c0 -19 2 -20 10 -8 13 19 13 30 0 30 -5 0 -10 -10 -10
-22z"/>
<path d="M4207 8229 c-3 -10 0 -22 7 -27 18 -10 27 -40 14 -48 -14 -9 11 -24
41 -24 37 0 129 -29 196 -62 74 -36 175 -100 175 -111 0 -5 -3 -6 -7 -4 -5 3
-38 23 -74 45 -79 48 -134 68 -77 28 20 -14 40 -26 43 -26 6 0 121 -77 135
-90 3 -3 34 -32 68 -65 34 -33 62 -54 62 -48 0 11 -87 99 -125 127 -11 8 -16
18 -12 22 4 5 11 4 15 -1 18 -24 82 -78 82 -69 0 33 -173 172 -233 188 -14 3
-32 13 -40 21 -8 8 -17 12 -19 9 -3 -2 -11 2 -18 11 -7 8 -18 15 -25 15 -11 0
-25 20 -25 36 0 13 49 1 79 -20 39 -26 101 -42 101 -26 0 6 12 8 28 4 21 -4
24 -3 12 5 -39 29 -173 91 -196 91 -20 0 -25 4 -22 18 4 15 -5 17 -88 19 -83
1 -93 -1 -97 -18z m97 -50 c-8 -14 -24 -10 -24 6 0 9 6 12 15 9 8 -4 12 -10 9
-15z"/>
<path d="M4100 8220 c0 -24 16 -28 57 -16 44 14 36 31 -15 32 -34 2 -42 -1
-42 -16z"/>
<path d="M3385 8190 c-3 -5 -2 -10 4 -10 5 0 13 5 16 10 3 6 2 10 -4 10 -5 0
-13 -4 -16 -10z"/>
<path d="M4136 8165 c-3 -9 0 -15 9 -15 16 0 20 16 6 24 -5 3 -11 -1 -15 -9z"/>
<path d="M4178 8153 c7 -3 16 -2 19 1 4 3 -2 6 -13 5 -11 0 -14 -3 -6 -6z"/>
<path d="M4630 8101 c0 -5 7 -15 17 -22 15 -13 15 -12 4 9 -12 23 -21 28 -21
13z"/>
<path d="M3420 7844 c0 -3 7 -12 15 -20 16 -17 18 -14 9 10 -6 15 -24 23 -24
10z"/>
<path d="M3540 5609 c0 -5 5 -7 10 -4 6 3 10 8 10 11 0 2 -4 4 -10 4 -5 0 -10
-5 -10 -11z"/>
<path d="M4529 5503 c-13 -17 -13 -17 6 -3 11 8 22 16 24 17 2 2 0 3 -6 3 -6
0 -17 -8 -24 -17z"/>
<path d="M4078 5443 c7 -3 16 -2 19 1 4 3 -2 6 -13 5 -11 0 -14 -3 -6 -6z"/>
<path d="M4110 5440 c0 -5 5 -10 11 -10 5 0 7 5 4 10 -3 6 -8 10 -11 10 -2 0
-4 -4 -4 -10z"/>
<path d="M4345 5330 c3 -5 8 -10 11 -10 2 0 4 5 4 10 0 6 -5 10 -11 10 -5 0
-7 -4 -4 -10z"/>
<path d="M5120 3482 c0 -18 12 -42 21 -42 14 0 10 26 -6 40 -9 8 -15 8 -15 2z"/>
<path d="M5280 3018 c0 -21 2 -38 4 -38 9 0 12 50 5 62 -6 8 -9 -1 -9 -24z"/>
<path d="M2995 3840 c3 -5 10 -10 16 -10 5 0 9 5 9 10 0 6 -7 10 -16 10 -8 0
-12 -4 -9 -10z"/>
<path d="M2978 3761 c-45 -24 -48 -28 -48 -67 0 -23 3 -56 6 -74 l7 -32 24 49
c30 60 65 145 61 148 -2 2 -24 -9 -50 -24z"/>
<path d="M5808 3346 c-16 -33 -16 -37 -3 -43 22 -8 27 0 23 43 l-3 37 -17 -37z"/>
<path d="M4776 2079 c-14 -11 -26 -28 -26 -38 0 -21 43 -43 65 -35 8 4 15 1
15 -5 0 -6 7 -11 15 -11 12 0 12 3 -2 18 -10 11 -21 17 -25 15 -3 -2 -13 0
-22 3 -19 7 -22 56 -3 53 26 -3 47 1 47 11 0 17 -36 11 -64 -11z"/>
<path d="M4870 2060 c0 -33 15 -41 22 -12 6 21 -1 42 -13 42 -5 0 -9 -13 -9
-30z"/>
<path d="M4911 2044 c0 -11 3 -14 6 -6 3 7 2 16 -1 19 -3 4 -6 -2 -5 -13z"/>
<path d="M2866 10255 c4 -8 1 -15 -6 -15 -7 0 -3 -9 10 -20 13 -11 30 -20 40
-20 18 0 40 19 40 35 0 5 -4 4 -9 -4 -6 -9 -16 -11 -27 -7 -15 6 -16 9 -5 15
19 12 4 31 -24 31 -18 0 -23 -4 -19 -15z"/>
<path d="M2778 10233 c6 -2 18 -2 25 0 6 3 1 5 -13 5 -14 0 -19 -2 -12 -5z"/>
<path d="M4914 10116 c-10 -25 0 -38 13 -17 8 13 9 22 3 26 -6 4 -13 -1 -16
-9z"/>
<path d="M2190 10030 c0 -5 5 -10 11 -10 5 0 7 5 4 10 -3 6 -8 10 -11 10 -2 0
-4 -4 -4 -10z"/>
<path d="M5590 9963 c0 -10 -10 -23 -22 -28 -34 -15 -29 -39 10 -43 24 -2 32
1 32 12 0 9 5 16 10 16 18 0 10 39 -10 50 -17 9 -20 8 -20 -7z"/>
<path d="M4230 9885 c0 -24 3 -26 48 -26 76 0 112 -4 112 -11 0 -3 -5 -8 -11
-10 -7 -2 -6 -12 3 -29 15 -29 38 -27 38 3 0 28 -31 78 -50 80 -8 1 -33 2 -55
2 -22 1 -50 5 -62 9 -20 7 -23 5 -23 -18z"/>
<path d="M5664 9234 c-8 -41 2 -56 34 -48 26 7 28 31 6 62 -21 31 -32 28 -40
-14z"/>
<path d="M6301 8614 c0 -11 3 -14 6 -6 3 7 2 16 -1 19 -3 4 -6 -2 -5 -13z"/>
<path d="M6311 8544 c0 -11 3 -14 6 -6 3 7 2 16 -1 19 -3 4 -6 -2 -5 -13z"/>
<path d="M1438 8424 c-60 -32 -17 -92 90 -125 59 -18 77 -20 98 -10 14 6 36
11 49 11 14 0 25 3 26 8 5 44 3 64 -6 71 -5 5 -39 12 -75 16 -35 4 -74 13 -85
20 -34 21 -69 24 -97 9z"/>
<path d="M1408 8131 c-15 -15 -24 -31 -21 -35 10 -10 23 -7 23 5 0 7 7 17 16
24 9 6 15 17 13 23 -2 7 -15 0 -31 -17z"/>
<path d="M1860 7938 c0 -24 16 -39 34 -32 9 4 16 14 14 23 -4 20 -48 28 -48 9z"/>
<path d="M5760 7890 c-12 -7 -12 -13 -1 -33 16 -30 8 -57 -27 -96 -36 -38 -66
-95 -54 -99 5 -1 29 -21 53 -42 24 -22 52 -40 61 -40 23 0 47 27 69 78 21 48
24 72 10 72 -5 0 -23 12 -40 26 -34 29 -42 73 -16 94 38 31 -11 68 -55 40z"/>
<path d="M1934 7704 c3 -9 6 -18 6 -20 0 -2 5 -4 10 -4 6 0 10 9 10 20 0 12
-7 20 -16 20 -11 0 -14 -5 -10 -16z"/>
<path d="M5320 7710 c0 -5 5 -21 12 -35 10 -22 9 -32 -7 -61 -10 -19 -22 -34
-27 -34 -15 0 -8 -31 13 -53 14 -15 19 -32 17 -57 -2 -23 1 -34 9 -33 6 2 32
-1 57 -6 36 -7 50 -5 68 8 12 9 41 23 63 31 23 9 41 23 43 34 3 16 -1 17 -37
11 -65 -11 -121 36 -121 100 0 12 -10 30 -21 41 -12 10 -25 29 -30 42 -8 21
-39 32 -39 12z"/>
<path d="M5987 7408 c-16 -12 -15 -16 9 -50 23 -32 26 -43 18 -70 -7 -24 -17
-34 -41 -40 -44 -11 -154 -29 -183 -29 -29 0 -52 -15 -68 -46 -16 -29 -16 -29
17 -53 l30 -20 17 30 c19 31 48 40 57 18 4 -10 7 -10 15 0 5 8 28 18 52 23 35
8 46 7 61 -7 20 -18 26 -74 9 -74 -17 0 -11 -29 12 -61 16 -22 22 -42 20 -72
-1 -23 -3 -76 -4 -118 -2 -58 -8 -82 -21 -97 -24 -26 -15 -57 21 -71 15 -6 46
-27 70 -46 49 -40 72 -44 72 -15 0 11 0 23 1 28 1 15 28 21 59 12 18 -5 37 -7
42 -4 15 9 56 -24 83 -66 14 -22 30 -40 35 -40 5 0 19 21 31 47 29 64 23 147
-12 174 -36 28 -61 20 -72 -21 -5 -19 -13 -41 -19 -47 -18 -23 -88 -13 -88 11
0 7 -12 19 -26 27 -48 25 -74 66 -74 117 -1 26 -8 65 -16 87 -27 68 -24 80 16
80 32 0 35 -2 35 -30 0 -27 3 -30 57 -40 69 -14 88 -6 87 38 0 26 -8 38 -41
62 -58 42 -113 149 -113 219 0 47 -4 55 -42 94 -24 23 -43 47 -43 52 0 14 -43
12 -63 -2z"/>
<path d="M6367 7392 c-9 -10 -17 -23 -17 -29 0 -6 -7 -16 -14 -23 -19 -15 -13
-68 14 -117 25 -47 25 -79 0 -121 -26 -43 -25 -56 5 -70 36 -17 44 -15 81 13
36 27 70 116 62 159 -3 15 0 27 8 30 8 3 14 9 14 14 0 11 -57 72 -68 72 -16 1
-49 37 -58 64 -9 27 -10 27 -27 8z"/>
<path d="M4832 7215 c2 -63 6 -80 18 -80 20 0 42 49 35 78 -4 13 -17 36 -31
53 l-24 29 2 -80z"/>
<path d="M1985 7220 c-6 -9 24 -50 37 -50 3 0 6 14 6 30 -1 22 -6 30 -19 30
-10 0 -20 -4 -24 -10z"/>
<path d="M4875 7100 c-3 -5 -2 -10 4 -10 5 0 13 5 16 10 3 6 2 10 -4 10 -5 0
-13 -4 -16 -10z"/>
<path d="M5846 7058 c-18 -59 -15 -98 8 -98 6 0 11 16 11 38 1 20 5 45 9 55 6
12 4 17 -8 17 -9 0 -18 -6 -20 -12z"/>
<path d="M8189 7028 c-7 -13 -22 -34 -35 -47 -28 -27 -24 -42 9 -33 46 14 68
38 65 71 -3 36 -22 41 -39 9z"/>
<path d="M8339 6784 c-9 -11 -10 -20 -2 -33 6 -9 14 -31 17 -49 10 -44 24 -49
53 -20 22 22 24 30 18 72 -7 44 -9 46 -40 46 -18 0 -38 -7 -46 -16z"/>
<path d="M8564 6750 c-30 -12 -36 -24 -20 -45 13 -17 17 -18 60 -4 40 13 45
17 34 31 -17 21 -48 29 -74 18z"/>
<path d="M7469 6679 c-10 -19 -7 -25 17 -45 33 -26 49 -30 41 -10 -3 7 1 23 9
35 19 27 10 41 -26 41 -20 0 -33 -7 -41 -21z"/>
<path d="M7888 6679 c-10 -5 -15 -16 -12 -24 5 -11 -1 -15 -20 -15 -26 0 -35
-13 -16 -25 17 -11 11 -47 -12 -66 -11 -11 -38 -24 -58 -29 -20 -5 -49 -20
-64 -33 -14 -13 -41 -24 -59 -25 -45 -3 -61 29 -42 84 13 38 11 64 -6 64 -5 0
-9 -4 -9 -9 0 -8 -87 -41 -109 -41 -6 0 -11 16 -11 35 0 37 -10 44 -30 20 -7
-9 -9 -23 -4 -37 4 -13 8 -25 9 -28 12 -70 33 -89 98 -90 46 0 47 -1 47 -30 0
-26 4 -30 28 -30 15 0 33 5 40 12 8 8 12 8 12 1 0 -6 14 -16 30 -22 25 -8 30
-15 30 -44 0 -36 -45 -106 -68 -107 -16 0 -11 -35 5 -35 6 0 15 -3 19 -7 4 -4
16 -5 28 -2 44 11 88 -67 54 -93 -7 -5 -27 -8 -44 -7 -37 4 -64 -21 -68 -60
-2 -15 -5 -28 -7 -29 -77 -43 -90 -45 -146 -22 -20 8 -73 17 -117 20 -107 7
-169 15 -181 25 -5 4 -38 -1 -71 -13 l-61 -20 -35 27 c-19 14 -38 26 -42 26
-9 0 -66 -62 -66 -72 0 -5 -12 -13 -26 -18 -21 -8 -33 -6 -60 11 -19 11 -34
24 -34 28 0 5 -11 20 -25 35 -40 43 -103 29 -134 -31 -20 -39 -13 -70 19 -93
48 -34 38 -64 -48 -149 -63 -63 -73 -79 -79 -117 -5 -35 -3 -44 9 -44 22 0 41
-26 34 -47 -3 -10 -33 -47 -66 -82 -60 -62 -70 -91 -33 -91 10 0 34 -13 53
-29 29 -25 35 -37 40 -82 5 -50 7 -54 35 -59 17 -3 47 -2 68 2 33 7 42 5 72
-19 19 -16 35 -34 35 -40 0 -7 12 -13 28 -14 108 -3 274 -25 335 -43 24 -7 58
-11 75 -8 25 3 37 -2 61 -27 17 -18 31 -35 31 -39 1 -4 9 -17 20 -30 17 -20
32 -24 131 -32 90 -7 123 -6 173 6 33 9 97 24 141 34 78 19 215 52 285 70 54
13 135 44 138 53 2 4 23 7 46 7 23 0 67 7 99 15 31 8 89 21 129 30 42 8 80 23
94 36 16 15 39 21 88 25 37 2 81 10 99 18 18 7 59 16 92 20 33 4 69 13 80 20
11 8 49 16 85 19 36 3 72 7 80 10 8 2 34 8 58 12 23 4 42 11 42 15 0 4 18 14
40 23 45 17 55 47 16 47 -13 0 -29 -6 -35 -13 -16 -19 -69 -9 -86 17 -19 28
-6 78 23 91 33 15 26 32 -20 52 -16 7 -28 21 -28 30 0 19 66 70 77 60 3 -4 18
1 33 10 25 14 29 14 54 -3 15 -9 32 -28 36 -40 12 -31 43 -21 63 22 17 34 31
42 42 24 4 -6 12 -5 21 4 11 12 14 52 14 199 l0 185 -57 4 c-32 2 -63 0 -69
-4 -13 -10 -94 19 -94 33 0 5 -16 15 -35 23 -35 15 -48 46 -20 46 8 0 15 5 15
12 0 9 3 9 12 0 14 -14 68 -16 68 -2 0 6 7 10 15 10 8 0 15 -4 15 -10 0 -5 15
-10 34 -10 28 0 35 4 38 23 5 36 32 27 38 -13 4 -20 10 -41 14 -48 18 -30 26
-5 26 84 l0 96 -35 -6 c-27 -5 -35 -4 -35 8 0 26 -34 22 -92 -11 -31 -18 -61
-33 -67 -33 -15 0 -50 -21 -73 -42 -20 -20 -38 -23 -38 -7 0 21 -45 48 -80 49
-24 0 -43 8 -59 26 -21 22 -24 34 -22 87 3 60 14 81 37 73 6 -2 24 4 40 14 28
19 36 19 150 5 45 -5 59 7 44 36 -18 33 -29 39 -76 39 -28 0 -44 5 -48 15 -9
23 -38 18 -84 -16 -46 -34 -87 -34 -99 -1 -9 21 -44 51 -61 52 -7 0 -18 12
-25 28 -16 36 -55 72 -80 72 -16 0 -19 -5 -14 -32 2 -19 -2 -47 -11 -65 -15
-32 -17 -33 -84 -33 -61 0 -68 -2 -68 -20 0 -11 -4 -20 -10 -20 -5 0 -10 4
-10 10 0 16 -36 30 -93 36 -46 5 -58 3 -92 -20 -21 -14 -48 -26 -60 -26 -15 0
-25 -8 -28 -21 -5 -17 -9 -19 -26 -9 -16 8 -21 8 -21 -1 0 -7 -3 -9 -6 -6 -4
3 -15 2 -25 -3 -27 -15 -52 -1 -46 27 3 17 -2 27 -17 35 -11 6 -27 20 -35 30
-7 11 -20 17 -27 14 -19 -7 -114 44 -114 61 0 20 -53 43 -72 32z m122 -115 c0
-2 -9 -4 -21 -4 -11 0 -18 4 -14 10 5 8 35 3 35 -6z m770 -144 c26 -26 25 -46
-4 -75 -27 -27 -66 -28 -97 -2 -26 23 -24 52 7 76 34 26 68 27 94 1z m-433
-36 c24 -4 38 -3 43 6 13 21 61 15 81 -11 10 -13 19 -31 19 -38 0 -24 -51 -91
-81 -107 -39 -20 -51 -18 -76 15 -13 15 -41 36 -63 46 -35 16 -40 22 -40 50 0
18 6 37 13 43 15 13 61 20 65 10 2 -4 19 -10 39 -14z m1036 -111 c-7 -2 -19
-2 -25 0 -7 3 -2 5 12 5 14 0 19 -2 13 -5z m-1064 -69 c27 -6 32 -11 29 -33
-2 -19 -15 -32 -46 -49 -41 -23 -44 -23 -68 -7 -21 13 -24 22 -19 43 13 52 32
60 104 46z m599 -26 c4 -38 -19 -36 -42 3 l-18 31 28 -4 c23 -2 30 -9 32 -30z
m-1008 -233 c7 -8 22 -15 34 -15 42 0 59 -30 41 -72 -6 -16 -1 -18 39 -18 25
0 46 -4 46 -10 0 -5 7 -10 15 -10 9 0 21 -11 27 -25 10 -22 9 -29 -10 -48 -20
-20 -25 -20 -67 -9 -32 8 -52 9 -65 2 -31 -17 -68 -12 -80 10 -13 25 -7 49 20
77 16 18 17 25 7 47 -7 14 -17 26 -24 26 -13 0 -33 31 -33 49 0 16 36 13 50
-4z m1185 -45 c9 -15 -14 -40 -36 -40 -23 0 -24 8 -2 32 18 20 29 23 38 8z
m283 -67 c17 -21 22 -36 18 -62 -6 -38 -12 -46 -42 -55 -13 -4 -29 0 -43 11
-21 18 -64 120 -56 133 3 4 26 6 52 4 38 -2 53 -9 71 -31z m-2577 -91 c26 -23
24 -47 -7 -67 -22 -14 -31 -15 -55 -5 -47 20 -51 32 -22 68 27 35 47 36 84 4z
m57 -111 c8 -4 14 -24 15 -42 2 -29 -2 -35 -22 -37 -29 -4 -42 14 -34 48 10
43 16 47 41 31z m1895 -61 c55 -65 39 -102 -42 -97 -39 2 -46 5 -52 29 -5 21
-1 35 19 62 15 20 32 35 39 36 6 0 23 -13 36 -30z m-694 -24 c16 -10 13 -46
-4 -52 -8 -4 -15 -12 -15 -20 0 -7 -10 -20 -22 -28 -20 -14 -23 -14 -34 3 -15
21 -21 81 -10 100 8 12 63 11 85 -3z m866 -121 c0 -25 -31 -43 -46 -28 -10 10
-8 17 6 33 21 24 40 21 40 -5z m-1265 -71 c0 -24 -39 -84 -55 -84 -24 0 -40
35 -36 77 0 6 16 14 34 16 17 2 38 5 45 5 6 1 12 -5 12 -14z"/>
<path d="M8697 6683 c-4 -3 -7 -11 -7 -17 0 -6 5 -5 12 2 6 6 9 14 7 17 -3 3
-9 2 -12 -2z"/>
<path d="M9413 6470 c-18 -4 -39 -12 -46 -19 -8 -6 -16 -8 -20 -5 -3 3 -3 -4
0 -16 4 -13 0 -25 -8 -31 -11 -6 -11 -11 -2 -20 9 -9 17 -5 36 15 14 15 35 26
51 26 22 0 26 4 26 30 0 17 -1 30 -2 29 -2 -1 -18 -5 -35 -9z"/>
<path d="M9295 6430 c3 -5 8 -10 11 -10 2 0 4 5 4 10 0 6 -5 10 -11 10 -5 0
-7 -4 -4 -10z"/>
<path d="M7227 6352 c-24 -26 -22 -31 17 -47 22 -10 41 -27 51 -49 24 -51 42
-63 62 -43 16 15 16 19 0 52 -9 19 -23 35 -32 35 -8 0 -25 16 -37 35 -26 39
-38 43 -61 17z"/>
<path d="M6680 6291 c0 -17 15 -19 35 -5 18 13 18 14 -8 14 -15 0 -27 -4 -27
-9z"/>
<path d="M7032 6224 c-17 -12 -22 -25 -22 -58 0 -23 2 -45 5 -48 3 -3 21 0 40
6 31 10 35 15 35 44 0 34 -15 72 -28 72 -4 0 -18 -7 -30 -16z"/>
<path d="M3045 6130 c-3 -5 1 -10 9 -10 8 0 18 5 21 10 3 6 -1 10 -9 10 -8 0
-18 -4 -21 -10z"/>
<path d="M7161 6126 c-8 -10 -9 -16 -1 -21 6 -3 8 -11 5 -16 -4 -5 1 -9 9 -9
16 0 31 34 21 50 -9 14 -20 13 -34 -4z"/>
<path d="M2220 6021 c-34 -20 -63 -27 -120 -31 -64 -4 -75 -7 -72 -22 2 -10
-2 -18 -8 -18 -5 0 -10 -4 -10 -10 0 -16 53 -12 78 6 12 8 37 15 55 16 44 0
117 28 117 44 0 8 5 14 10 14 6 0 10 7 10 15 0 20 -6 18 -60 -14z"/>
<path d="M1970 5925 c0 -8 5 -15 10 -15 6 0 10 7 10 15 0 8 -4 15 -10 15 -5 0
-10 -7 -10 -15z"/>
<path d="M2495 5770 c-3 -5 -2 -10 4 -10 5 0 13 5 16 10 3 6 2 10 -4 10 -5 0
-13 -4 -16 -10z"/>
<path d="M5750 5606 c0 -2 7 -6 15 -10 8 -3 15 -1 15 4 0 6 -7 10 -15 10 -8 0
-15 -2 -15 -4z"/>
<path d="M9436 5578 c-13 -43 -13 -56 0 -51 8 3 14 18 14 34 0 30 -8 39 -14
17z"/>
<path d="M5806 5538 c21 -34 78 -104 91 -111 22 -13 27 0 11 25 -23 34 -87 98
-99 98 -6 0 -7 -6 -3 -12z"/>
<path d="M9210 5541 c0 -5 14 -16 31 -25 28 -14 33 -14 55 0 37 25 29 34 -31
34 -30 0 -55 -4 -55 -9z"/>
<path d="M6020 5441 c0 -5 6 -16 13 -23 7 -7 27 -32 46 -56 34 -44 51 -47 51
-8 0 17 -10 28 -32 39 -18 9 -39 25 -46 36 -12 22 -32 28 -32 12z"/>
<path d="M5940 5400 c6 -11 15 -20 21 -20 6 0 6 7 -1 20 -6 11 -15 20 -21 20
-6 0 -6 -7 1 -20z"/>
<path d="M1908 5324 c-48 -51 -56 -64 -36 -64 22 1 64 44 76 78 6 18 9 32 7
32 -2 0 -23 -21 -47 -46z"/>
<path d="M6240 5255 c-7 -8 -19 -15 -26 -15 -8 0 -14 -4 -14 -10 0 -11 49 -14
74 -4 12 5 13 10 5 25 -12 23 -22 24 -39 4z"/>
<path d="M6100 5026 c0 -2 7 -9 15 -16 13 -11 14 -10 9 4 -5 14 -24 23 -24 12z"/>
<path d="M2326 1394 c-9 -8 -16 -11 -16 -5 0 6 -4 11 -10 11 -22 0 -8 -28 19
-40 37 -15 50 -8 43 25 -5 29 -14 31 -36 9z m24 -19 c0 -8 -4 -15 -10 -15 -5
0 -10 7 -10 15 0 8 5 15 10 15 6 0 10 -7 10 -15z"/>
<path d="M2150 1380 c0 -5 5 -10 10 -10 6 0 10 5 10 10 0 6 -4 10 -10 10 -5 0
-10 -4 -10 -10z"/>
<path d="M1907 1319 c7 -7 15 -10 18 -7 3 3 -2 9 -12 12 -14 6 -15 5 -6 -5z"/>
</g>
</svg>
